<svg width="600" height="217" viewBox="0 0 600 217" fill="none" xmlns="http://www.w3.org/2000/svg">
<path d="M415.281 103.33V92.9091H460.154V103.33H444.056V146H431.406V103.33H415.281ZM466.421 146V92.9091H503.44V103.33H479.253V114.218H501.547V124.665H479.253V135.579H503.44V146H466.421ZM511.476 146V92.9091H533.407C537.382 92.9091 540.813 93.6263 543.699 95.0607C546.602 96.4779 548.84 98.5172 550.413 101.179C551.986 103.823 552.772 106.96 552.772 110.589C552.772 114.27 551.968 117.398 550.361 119.973C548.754 122.531 546.473 124.484 543.517 125.832C540.562 127.162 537.062 127.828 533.018 127.828H519.149V117.718H530.633C532.569 117.718 534.185 117.467 535.481 116.966C536.795 116.447 537.788 115.67 538.462 114.633C539.136 113.579 539.473 112.231 539.473 110.589C539.473 108.947 539.136 107.59 538.462 106.519C537.788 105.43 536.795 104.618 535.481 104.082C534.168 103.529 532.552 103.252 530.633 103.252H524.308V146H511.476ZM541.366 121.736L554.587 146H540.588L527.626 121.736H541.366Z" fill="#8A2BE2"/>
<path d="M410.837 175.667C410.837 175.667 414.196 174.766 416 175.667C419.61 177.47 419.087 186 416 186C412.913 186 409.516 186 405.675 186C394.276 186 385.025 195.259 385.025 206.667C385.025 210.449 385.025 213.952 385.025 217H33.975C33.975 213.952 33.975 210.449 33.975 206.667C33.975 195.259 24.7238 186 13.325 186C10.0313 186 6.44857 186 3.00002 186C-0.448532 186 -0.609949 177.47 3.00002 175.667C4.80355 174.766 8.16252 175.667 8.16252 175.667C11.0122 175.667 13.325 173.352 13.325 170.5C13.325 167.648 11.0122 165.333 8.16252 165.333C8.16252 165.333 4.80355 166.234 3.00002 165.333C-0.609956 163.53 -0.609956 156.804 3.00002 155C4.80355 154.099 8.16252 155 8.16252 155C11.0122 155 13.325 152.685 13.325 149.833C13.325 146.981 11.0122 144.667 8.16252 144.667C8.16252 144.667 4.80355 145.568 3.00002 144.667C-0.609949 142.863 -0.609949 136.137 3.00002 134.333C4.80355 133.432 8.16252 134.333 8.16252 134.333C11.0122 134.333 13.325 132.019 13.325 129.167C13.325 126.315 11.0122 124 8.16252 124C8.16252 124 4.80355 124.901 3.00002 124C-0.609949 122.196 -0.609949 115.47 3.00002 113.667C4.80355 112.766 8.16252 113.667 8.16252 113.667C11.0122 113.667 13.325 111.352 13.325 108.5C13.325 105.648 11.0122 103.333 8.16252 103.333C8.16252 103.333 4.80355 104.234 3.00002 103.333C-0.609952 101.53 -0.609952 94.8035 3.00002 93C4.80355 92.099 8.16252 93 8.16252 93C11.0122 93 13.325 90.6853 13.325 87.8333C13.325 84.9813 11.0122 82.6667 8.16252 82.6667C8.16252 82.6667 4.80355 83.5677 3.00002 82.6667C-0.609952 80.8631 -0.609952 74.1369 3.00002 72.3333C4.80355 71.4323 8.16252 72.3333 8.16252 72.3333C11.0122 72.3333 13.325 70.0187 13.325 67.1667C13.325 64.3147 11.0122 62 8.16252 62C8.16252 62 4.80355 62.901 3.00002 62C-0.609951 60.1965 -0.609951 53.4702 3.00002 51.6667C4.80355 50.7656 8.16252 51.6667 8.16252 51.6667C11.0122 51.6667 13.325 49.352 13.325 46.5C13.325 43.648 11.0122 41.3333 8.16252 41.3333C8.16252 41.3333 4.80355 42.2344 3.00002 41.3333C-0.609952 39.5298 -0.0871568 31 3.00002 31C6.08719 31 9.48412 31 13.325 31C24.7238 31 33.975 21.7414 33.975 10.3333C33.975 6.55133 33.975 3.04834 33.975 0H385.025C385.025 3.04834 385.025 6.55133 385.025 10.3333C385.025 21.7414 394.276 31 405.675 31C409.516 31 412.913 31 416 31C419.087 31 419.61 39.5298 416 41.3333C414.196 42.2344 410.837 41.3333 410.837 41.3333C407.988 41.3333 405.675 43.648 405.675 46.5C405.675 49.352 407.988 51.6667 410.837 51.6667C410.837 51.6667 414.196 50.7656 416 51.6667C419.61 53.4702 419.61 60.1965 416 62C414.196 62.901 410.837 62 410.837 62C407.988 62 405.675 64.3147 405.675 67.1667C405.675 70.0187 407.988 72.3333 410.837 72.3333C410.837 72.3333 414.196 71.4323 416 72.3333C419.61 74.1369 419.61 80.8631 416 82.6667C414.196 83.5677 410.837 82.6667 410.837 82.6667C407.988 82.6667 405.675 84.9813 405.675 87.8333C405.675 90.6853 407.988 93 410.837 93H416V103.333H410.837C407.988 103.333 405.675 105.648 405.675 108.5C405.675 111.352 407.988 113.667 410.837 113.667C410.837 113.667 414.196 112.766 416 113.667C419.61 115.47 419.61 122.196 416 124C414.196 124.901 410.837 124 410.837 124C407.988 124 405.675 126.315 405.675 129.167C405.675 132.019 407.988 134.333 410.837 134.333C410.837 134.333 414.196 133.432 416 134.333C419.61 136.137 419.61 142.863 416 144.667C414.196 145.568 410.837 144.667 410.837 144.667C407.988 144.667 405.675 146.981 405.675 149.833C405.675 152.685 407.988 155 410.837 155C410.837 155 414.196 154.099 416 155C419.61 156.804 419.61 163.53 416 165.333C414.196 166.234 410.837 165.333 410.837 165.333C407.988 165.333 405.675 167.648 405.675 170.5C405.675 173.352 407.988 175.667 410.837 175.667ZM374.7 51.6667C374.7 40.2586 365.449 31 354.05 31H64.95C53.5512 31 44.3 40.2586 44.3 51.6667V165.333C44.3 176.741 53.5512 186 64.95 186H354.05C365.449 186 374.7 176.741 374.7 165.333V51.6667ZM354.05 175.667H64.95C59.2403 175.667 54.625 171.037 54.625 165.333V51.6667C54.625 45.9523 59.2403 41.3333 64.95 41.3333H354.05C359.749 41.3333 364.375 45.9523 364.375 51.6667V165.333C364.375 171.037 359.749 175.667 354.05 175.667Z" fill="#8A2BE2"/>
<path d="M71 94.5909V85.4545H110.341V94.5909H96.2273V132H85.1364V94.5909H71ZM127.085 85.4545V132H115.835V85.4545H127.085ZM176.398 102.318H165.034C164.883 101.152 164.572 100.098 164.102 99.1591C163.633 98.2197 163.011 97.4167 162.239 96.75C161.466 96.0833 160.549 95.5758 159.489 95.2273C158.443 94.8636 157.284 94.6818 156.011 94.6818C153.754 94.6818 151.807 95.2348 150.17 96.3409C148.549 97.447 147.299 99.0455 146.42 101.136C145.557 103.227 145.125 105.758 145.125 108.727C145.125 111.818 145.564 114.409 146.443 116.5C147.337 118.576 148.587 120.144 150.193 121.205C151.814 122.25 153.731 122.773 155.943 122.773C157.186 122.773 158.314 122.614 159.33 122.295C160.36 121.977 161.261 121.515 162.034 120.909C162.822 120.288 163.466 119.538 163.966 118.659C164.481 117.765 164.837 116.758 165.034 115.636L176.398 115.705C176.201 117.765 175.602 119.795 174.602 121.795C173.617 123.795 172.261 125.621 170.534 127.273C168.807 128.909 166.701 130.212 164.216 131.182C161.746 132.152 158.913 132.636 155.716 132.636C151.504 132.636 147.731 131.712 144.398 129.864C141.08 128 138.458 125.288 136.534 121.727C134.61 118.167 133.648 113.833 133.648 108.727C133.648 103.606 134.625 99.2652 136.58 95.7045C138.534 92.1439 141.178 89.4394 144.511 87.5909C147.845 85.7424 151.58 84.8182 155.716 84.8182C158.534 84.8182 161.14 85.2121 163.534 86C165.928 86.7727 168.034 87.9091 169.852 89.4091C171.67 90.8939 173.148 92.7197 174.284 94.8864C175.42 97.053 176.125 99.5303 176.398 102.318ZM182.835 132V85.4545H194.085V105.136H194.699L210.085 85.4545H223.335L206.835 106.227L223.631 132H210.176L198.585 113.705L194.085 119.386V132H182.835ZM227.773 132V85.4545H260.227V94.5909H239.023V104.136H258.568V113.295H239.023V122.864H260.227V132H227.773ZM265.75 94.5909V85.4545H305.091V94.5909H290.977V132H279.886V94.5909H265.75ZM335.744 99.4091C335.593 97.7424 334.919 96.447 333.722 95.5227C332.54 94.5833 330.85 94.1136 328.653 94.1136C327.199 94.1136 325.987 94.303 325.017 94.6818C324.047 95.0606 323.32 95.5833 322.835 96.25C322.35 96.9015 322.1 97.6515 322.085 98.5C322.055 99.197 322.191 99.8106 322.494 100.341C322.813 100.871 323.267 101.341 323.858 101.75C324.464 102.144 325.191 102.492 326.04 102.795C326.888 103.098 327.843 103.364 328.903 103.591L332.903 104.5C335.206 105 337.237 105.667 338.994 106.5C340.767 107.333 342.252 108.326 343.449 109.477C344.661 110.629 345.578 111.955 346.199 113.455C346.82 114.955 347.138 116.636 347.153 118.5C347.138 121.439 346.396 123.962 344.926 126.068C343.456 128.174 341.343 129.788 338.585 130.909C335.843 132.03 332.532 132.591 328.653 132.591C324.759 132.591 321.366 132.008 318.472 130.841C315.578 129.674 313.328 127.902 311.722 125.523C310.116 123.144 309.29 120.136 309.244 116.5H320.017C320.108 118 320.509 119.25 321.222 120.25C321.934 121.25 322.911 122.008 324.153 122.523C325.411 123.038 326.866 123.295 328.517 123.295C330.032 123.295 331.32 123.091 332.381 122.682C333.456 122.273 334.282 121.705 334.858 120.977C335.434 120.25 335.729 119.417 335.744 118.477C335.729 117.598 335.456 116.848 334.926 116.227C334.396 115.591 333.578 115.045 332.472 114.591C331.381 114.121 329.987 113.689 328.29 113.295L323.426 112.159C319.396 111.235 316.222 109.742 313.903 107.682C311.585 105.606 310.434 102.803 310.449 99.2727C310.434 96.3939 311.206 93.8712 312.767 91.7045C314.328 89.5379 316.487 87.8485 319.244 86.6364C322.002 85.4242 325.146 84.8182 328.676 84.8182C332.282 84.8182 335.411 85.4318 338.062 86.6591C340.729 87.8712 342.797 89.5758 344.267 91.7727C345.737 93.9697 346.487 96.5151 346.517 99.4091H335.744Z" fill="white"/>
</svg>
