<svg xmlns="http://www.w3.org/2000/svg" xmlns:xlink="http://www.w3.org/1999/xlink" width="741" zoomAndPan="magnify" viewBox="0 0 555.75 555.750005" height="741" preserveAspectRatio="xMidYMid meet" version="1.0"><defs><filter x="0%" y="0%" width="100%" height="100%" id="f72f19aab9"><feColorMatrix values="0 0 0 0 1 0 0 0 0 1 0 0 0 0 1 0 0 0 1 0" color-interpolation-filters="sRGB"/></filter><g/><clipPath id="0a1a97aa9f"><path d="M 0 0 L 555.5 0 L 555.5 555.5 L 0 555.5 Z M 0 0 " clip-rule="nonzero"/></clipPath><clipPath id="69f1f702f2"><path d="M 178 179.429688 L 374.207031 179.429688 L 374.207031 375.660156 L 178 375.660156 Z M 178 179.429688 " clip-rule="nonzero"/></clipPath><clipPath id="998e1d2cbb"><path d="M 178.089844 277.546875 C 178.089844 223.417969 221.960938 179.542969 276.089844 179.542969 C 330.21875 179.542969 374.089844 223.417969 374.089844 277.546875 C 374.089844 331.671875 330.21875 375.546875 276.089844 375.546875 C 221.960938 375.546875 178.089844 331.671875 178.089844 277.546875 Z M 178.089844 277.546875 " clip-rule="nonzero"/></clipPath><clipPath id="b144adc07c"><path d="M 177.199219 178.65625 L 375 178.65625 L 375 377 L 177.199219 377 Z M 177.199219 178.65625 " clip-rule="nonzero"/></clipPath><clipPath id="3c2c644871"><path d="M 177.199219 277.546875 C 177.199219 222.929688 221.472656 178.65625 276.089844 178.65625 L 276.089844 179.542969 L 276.089844 178.65625 C 330.707031 178.65625 374.980469 222.929688 374.980469 277.546875 L 374.089844 277.546875 L 374.980469 277.546875 C 374.980469 332.160156 330.707031 376.433594 276.089844 376.433594 L 276.089844 375.546875 L 276.089844 376.433594 C 221.472656 376.433594 177.199219 332.160156 177.199219 277.546875 L 178.976562 277.546875 L 177.199219 277.546875 M 178.976562 277.546875 C 178.976562 278.035156 178.578125 278.433594 178.089844 278.433594 C 177.601562 278.433594 177.199219 278.035156 177.199219 277.546875 C 177.199219 277.054688 177.601562 276.65625 178.089844 276.65625 C 178.578125 276.65625 178.976562 277.054688 178.976562 277.546875 C 178.976562 331.175781 222.453125 374.65625 276.089844 374.65625 C 329.726562 374.65625 373.203125 331.183594 373.203125 277.546875 C 373.203125 223.90625 329.71875 180.433594 276.089844 180.433594 L 276.089844 179.542969 L 276.089844 180.433594 C 222.453125 180.433594 178.976562 223.90625 178.976562 277.546875 Z M 178.976562 277.546875 " clip-rule="nonzero"/></clipPath><clipPath id="3a7ea4ce13"><path d="M 129.398438 130.835938 L 423 130.835938 L 423 425 L 129.398438 425 Z M 129.398438 130.835938 " clip-rule="nonzero"/></clipPath><clipPath id="52731fa533"><path d="M 129.402344 277.554688 C 129.402344 196.523438 195.085938 130.835938 276.117188 130.835938 C 357.148438 130.835938 422.84375 196.523438 422.84375 277.554688 C 422.84375 358.585938 357.148438 424.28125 276.117188 424.28125 C 195.085938 424.28125 129.402344 358.585938 129.402344 277.554688 Z M 129.402344 277.554688 " clip-rule="nonzero"/></clipPath><mask id="595e92bf82"><g filter="url(#f72f19aab9)"><rect x="-55.575" width="666.9" fill="#000000" y="-55.575001" height="666.900006" fill-opacity="0.5089"/></g></mask><clipPath id="c05b158be9"><path d="M 0.398438 0.835938 L 293.929688 0.835938 L 293.929688 294.367188 L 0.398438 294.367188 Z M 0.398438 0.835938 " clip-rule="nonzero"/></clipPath><clipPath id="252ab0d427"><path d="M 0.402344 147.554688 C 0.402344 66.523438 66.085938 0.835938 147.117188 0.835938 C 228.148438 0.835938 293.84375 66.523438 293.84375 147.554688 C 293.84375 228.585938 228.148438 294.28125 147.117188 294.28125 C 66.085938 294.28125 0.402344 228.585938 0.402344 147.554688 Z M 0.402344 147.554688 " clip-rule="nonzero"/></clipPath><clipPath id="0bcd98d6ae"><rect x="0" width="294" y="0" height="295"/></clipPath><clipPath id="b565830e47"><path d="M 128.511719 129.949219 L 423.730469 129.949219 L 423.730469 425.167969 L 128.511719 425.167969 Z M 128.511719 129.949219 " clip-rule="nonzero"/></clipPath><clipPath id="8ff6c703af"><path d="M 128.511719 277.554688 C 128.511719 196.035156 194.597656 129.949219 276.117188 129.949219 L 276.117188 130.835938 L 276.117188 129.949219 C 357.636719 129.949219 423.722656 196.035156 423.722656 277.554688 L 422.835938 277.554688 L 423.722656 277.554688 C 423.722656 359.074219 357.636719 425.160156 276.117188 425.160156 L 276.117188 424.273438 L 276.117188 425.160156 C 194.597656 425.167969 128.511719 359.082031 128.511719 277.554688 L 130.289062 277.554688 L 128.511719 277.554688 M 130.289062 277.554688 C 130.289062 278.042969 129.890625 278.445312 129.402344 278.445312 C 128.914062 278.445312 128.511719 278.042969 128.511719 277.554688 C 128.511719 277.066406 128.914062 276.667969 129.402344 276.667969 C 129.890625 276.667969 130.289062 277.066406 130.289062 277.554688 C 130.289062 358.097656 195.585938 423.382812 276.117188 423.382812 C 356.652344 423.382812 421.949219 358.089844 421.949219 277.554688 C 421.949219 197.023438 356.660156 131.726562 276.117188 131.726562 L 276.117188 130.835938 L 276.117188 131.726562 C 195.585938 131.726562 130.289062 197.023438 130.289062 277.554688 Z M 130.289062 277.554688 " clip-rule="nonzero"/></clipPath><clipPath id="17f52af17a"><path d="M 338.011719 309.132812 L 517.753906 309.132812 L 517.753906 488.875 L 338.011719 488.875 Z M 338.011719 309.132812 " clip-rule="nonzero"/></clipPath><clipPath id="6d12571473"><path d="M 338.199219 399.007812 C 338.199219 349.46875 378.351562 309.316406 427.886719 309.316406 C 477.425781 309.316406 517.570312 349.46875 517.570312 399.007812 C 517.570312 448.546875 477.417969 488.6875 427.886719 488.6875 C 378.359375 488.6875 338.199219 448.535156 338.199219 399.007812 Z M 338.199219 399.007812 " clip-rule="nonzero"/></clipPath><mask id="6e1cc54bca"><g filter="url(#f72f19aab9)"><rect x="-55.575" width="666.9" fill="#000000" y="-55.575001" height="666.900006" fill-opacity="0.5089"/></g></mask><clipPath id="0f7213e69c"><path d="M 0.0117188 0.222656 L 179.6875 0.222656 L 179.6875 179.875 L 0.0117188 179.875 Z M 0.0117188 0.222656 " clip-rule="nonzero"/></clipPath><clipPath id="bb4e8d93a6"><path d="M 0.199219 90.007812 C 0.199219 40.46875 40.351562 0.316406 89.886719 0.316406 C 139.425781 0.316406 179.570312 40.46875 179.570312 90.007812 C 179.570312 139.546875 139.417969 179.6875 89.886719 179.6875 C 40.359375 179.6875 0.199219 139.535156 0.199219 90.007812 Z M 0.199219 90.007812 " clip-rule="nonzero"/></clipPath><clipPath id="a908b7578c"><rect x="0" width="180" y="0" height="180"/></clipPath><clipPath id="b306816521"><path d="M 337.304688 308.425781 L 519 308.425781 L 519 490 L 337.304688 490 Z M 337.304688 308.425781 " clip-rule="nonzero"/></clipPath><clipPath id="a7284a55f9"><path d="M 337.304688 399.007812 C 337.304688 348.980469 377.859375 308.425781 427.886719 308.425781 L 427.886719 309.316406 L 427.886719 308.425781 C 477.914062 308.425781 518.46875 348.980469 518.46875 399.007812 L 517.578125 399.007812 L 518.46875 399.007812 C 518.46875 449.035156 477.914062 489.589844 427.886719 489.589844 L 427.886719 488.699219 L 427.886719 489.589844 C 377.859375 489.582031 337.304688 449.027344 337.304688 399.007812 L 339.089844 399.007812 L 337.304688 399.007812 M 339.089844 399.007812 C 339.089844 399.5 338.6875 399.898438 338.199219 399.898438 C 337.707031 399.898438 337.304688 399.5 337.304688 399.007812 C 337.304688 398.515625 337.707031 398.117188 338.199219 398.117188 C 338.6875 398.117188 339.089844 398.515625 339.089844 399.007812 C 339.089844 448.046875 378.839844 487.804688 427.886719 487.804688 C 476.933594 487.804688 516.6875 448.054688 516.6875 399.007812 C 516.6875 349.960938 476.925781 310.210938 427.886719 310.210938 L 427.886719 309.316406 L 427.886719 310.210938 C 378.839844 310.210938 339.089844 349.960938 339.089844 399.007812 Z M 339.089844 399.007812 " clip-rule="nonzero"/></clipPath><clipPath id="9a5021b196"><path d="M 36.382812 70.628906 L 216 70.628906 L 216 250.371094 L 36.382812 250.371094 Z M 36.382812 70.628906 " clip-rule="nonzero"/></clipPath><clipPath id="48292160e4"><path d="M 36.570312 160.503906 C 36.570312 110.96875 76.722656 70.816406 126.257812 70.816406 C 175.796875 70.816406 215.941406 110.96875 215.941406 160.503906 C 215.941406 210.042969 175.785156 250.1875 126.257812 250.1875 C 76.730469 250.1875 36.570312 210.03125 36.570312 160.503906 Z M 36.570312 160.503906 " clip-rule="nonzero"/></clipPath><mask id="fcb7ed7a8d"><g filter="url(#f72f19aab9)"><rect x="-55.575" width="666.9" fill="#000000" y="-55.575001" height="666.900006" fill-opacity="0.5089"/></g></mask><clipPath id="97bbe28322"><path d="M 0.464844 0.769531 L 180 0.769531 L 180 180.207031 L 0.464844 180.207031 Z M 0.464844 0.769531 " clip-rule="nonzero"/></clipPath><clipPath id="063ebde819"><path d="M 0.570312 90.503906 C 0.570312 40.96875 40.722656 0.816406 90.257812 0.816406 C 139.796875 0.816406 179.941406 40.96875 179.941406 90.503906 C 179.941406 140.042969 139.785156 180.1875 90.257812 180.1875 C 40.730469 180.1875 0.570312 140.03125 0.570312 90.503906 Z M 0.570312 90.503906 " clip-rule="nonzero"/></clipPath><clipPath id="2d851cc9c4"><rect x="0" width="180" y="0" height="181"/></clipPath><clipPath id="1b53572c5e"><path d="M 35.675781 69.921875 L 217 69.921875 L 217 251.785156 L 35.675781 251.785156 Z M 35.675781 69.921875 " clip-rule="nonzero"/></clipPath><clipPath id="f5ca3742bd"><path d="M 35.675781 160.503906 C 35.675781 110.476562 76.230469 69.921875 126.257812 69.921875 L 126.257812 70.816406 L 126.257812 69.921875 C 176.285156 69.921875 216.839844 110.476562 216.839844 160.503906 L 215.949219 160.503906 L 216.839844 160.503906 C 216.839844 210.53125 176.285156 251.085938 126.257812 251.085938 L 126.257812 250.195312 L 126.257812 251.085938 C 76.230469 251.078125 35.675781 210.523438 35.675781 160.503906 L 37.460938 160.503906 L 35.675781 160.503906 M 37.460938 160.503906 C 37.460938 160.996094 37.058594 161.398438 36.570312 161.398438 C 36.078125 161.398438 35.675781 160.996094 35.675781 160.503906 C 35.675781 160.015625 36.078125 159.613281 36.570312 159.613281 C 37.058594 159.613281 37.460938 160.015625 37.460938 160.503906 C 37.460938 209.542969 77.210938 249.300781 126.257812 249.300781 C 175.304688 249.300781 215.054688 209.550781 215.054688 160.503906 C 215.054688 111.457031 175.296875 71.707031 126.257812 71.707031 L 126.257812 70.816406 L 126.257812 71.707031 C 77.210938 71.707031 37.460938 111.457031 37.460938 160.503906 Z M 37.460938 160.503906 " clip-rule="nonzero"/></clipPath><clipPath id="843fe6bf00"><path d="M 36.386719 307.136719 L 216 307.136719 L 216 486.878906 L 36.386719 486.878906 Z M 36.386719 307.136719 " clip-rule="nonzero"/></clipPath><clipPath id="a7db3e7a09"><path d="M 215.945312 397.011719 C 215.945312 347.472656 175.792969 307.320312 126.261719 307.320312 C 76.734375 307.320312 36.574219 347.472656 36.574219 397.011719 C 36.574219 446.546875 76.726562 486.691406 126.261719 486.691406 C 175.800781 486.691406 215.953125 446.539062 215.953125 397 Z M 215.945312 397.011719 " clip-rule="nonzero"/></clipPath><mask id="1513ce5b13"><g filter="url(#f72f19aab9)"><rect x="-55.575" width="666.9" fill="#000000" y="-55.575001" height="666.900006" fill-opacity="0.5089"/></g></mask><clipPath id="142282c479"><path d="M 0.464844 0.300781 L 180 0.300781 L 180 179.742188 L 0.464844 179.742188 Z M 0.464844 0.300781 " clip-rule="nonzero"/></clipPath><clipPath id="4217084890"><path d="M 179.945312 90.011719 C 179.945312 40.472656 139.792969 0.320312 90.261719 0.320312 C 40.734375 0.320312 0.574219 40.472656 0.574219 90.011719 C 0.574219 139.546875 40.726562 179.691406 90.261719 179.691406 C 139.800781 179.691406 179.953125 139.539062 179.953125 90 Z M 179.945312 90.011719 " clip-rule="nonzero"/></clipPath><clipPath id="97a1a0a575"><rect x="0" width="180" y="0" height="180"/></clipPath><clipPath id="6a3325160b"><path d="M 35.679688 306.429688 L 217 306.429688 L 217 488 L 35.679688 488 Z M 35.679688 306.429688 " clip-rule="nonzero"/></clipPath><clipPath id="47a458b714"><path d="M 215.050781 397.011719 C 215.050781 347.964844 175.300781 308.210938 126.261719 308.210938 L 126.261719 307.320312 L 126.261719 308.210938 L 126.261719 307.320312 L 126.261719 308.210938 C 77.214844 308.210938 37.464844 347.964844 37.464844 397.011719 L 36.574219 397.011719 L 37.464844 397.011719 C 37.464844 446.046875 77.214844 485.808594 126.261719 485.808594 L 126.261719 486.699219 L 126.261719 485.808594 C 175.300781 485.808594 215.058594 446.058594 215.058594 397.011719 C 215.058594 396.519531 215.460938 396.117188 215.953125 396.117188 C 216.441406 396.117188 216.84375 396.519531 216.84375 397.011719 L 215.058594 397.011719 M 216.84375 397.011719 C 216.84375 397.5 216.441406 397.902344 215.953125 397.902344 C 215.460938 397.902344 215.058594 397.5 215.058594 397.011719 L 216.84375 397.011719 C 216.84375 447.039062 176.289062 487.59375 126.261719 487.59375 C 76.234375 487.59375 35.679688 447.03125 35.679688 397.011719 C 35.679688 346.992188 76.234375 306.429688 126.261719 306.429688 C 176.289062 306.429688 216.835938 346.984375 216.835938 397.011719 Z M 216.84375 397.011719 " clip-rule="nonzero"/></clipPath><clipPath id="67b4b63a42"><path d="M 338.015625 68.632812 L 517.757812 68.632812 L 517.757812 248.375 L 338.015625 248.375 Z M 338.015625 68.632812 " clip-rule="nonzero"/></clipPath><clipPath id="368e9b5061"><path d="M 517.574219 158.507812 C 517.574219 108.96875 477.421875 68.816406 427.890625 68.816406 C 378.363281 68.816406 338.203125 108.96875 338.203125 158.507812 C 338.203125 208.046875 378.355469 248.1875 427.890625 248.1875 C 477.429688 248.1875 517.582031 208.035156 517.582031 158.5 Z M 517.574219 158.507812 " clip-rule="nonzero"/></clipPath><mask id="dcb5f273f7"><g filter="url(#f72f19aab9)"><rect x="-55.575" width="666.9" fill="#000000" y="-55.575001" height="666.900006" fill-opacity="0.5089"/></g></mask><clipPath id="a2528d0dff"><path d="M 0.015625 0.632812 L 179.6875 0.632812 L 179.6875 180.289062 L 0.015625 180.289062 Z M 0.015625 0.632812 " clip-rule="nonzero"/></clipPath><clipPath id="0498ba7c64"><path d="M 179.574219 90.507812 C 179.574219 40.96875 139.421875 0.816406 89.890625 0.816406 C 40.363281 0.816406 0.203125 40.96875 0.203125 90.507812 C 0.203125 140.046875 40.355469 180.1875 89.890625 180.1875 C 139.429688 180.1875 179.582031 140.035156 179.582031 90.5 Z M 179.574219 90.507812 " clip-rule="nonzero"/></clipPath><clipPath id="777429a707"><rect x="0" width="180" y="0" height="181"/></clipPath><clipPath id="abd47749a5"><path d="M 337.308594 67.925781 L 519 67.925781 L 519 249.789062 L 337.308594 249.789062 Z M 337.308594 67.925781 " clip-rule="nonzero"/></clipPath><clipPath id="08999d7ed7"><path d="M 516.679688 158.507812 C 516.679688 109.460938 476.929688 69.710938 427.890625 69.710938 L 427.890625 68.816406 L 427.890625 69.710938 L 427.890625 68.816406 L 427.890625 69.710938 C 378.84375 69.710938 339.09375 109.460938 339.09375 158.507812 L 338.203125 158.507812 L 339.09375 158.507812 C 339.09375 207.546875 378.84375 247.304688 427.890625 247.304688 L 427.890625 248.199219 L 427.890625 247.304688 C 476.929688 247.304688 516.691406 207.554688 516.691406 158.507812 C 516.691406 158.015625 517.089844 157.617188 517.582031 157.617188 C 518.074219 157.617188 518.472656 158.015625 518.472656 158.507812 L 516.691406 158.507812 M 518.472656 158.507812 C 518.472656 159 518.074219 159.398438 517.582031 159.398438 C 517.089844 159.398438 516.691406 159 516.691406 158.507812 L 518.472656 158.507812 C 518.472656 208.535156 477.917969 249.089844 427.890625 249.089844 C 377.863281 249.089844 337.308594 208.527344 337.308594 158.507812 C 337.308594 108.488281 377.863281 67.925781 427.890625 67.925781 C 477.917969 67.925781 518.464844 108.480469 518.464844 158.507812 Z M 518.472656 158.507812 " clip-rule="nonzero"/></clipPath><clipPath id="9cab1c6e90"><path d="M 186.132812 187.132812 L 365 187.132812 L 365 366 L 186.132812 366 Z M 186.132812 187.132812 " clip-rule="nonzero"/></clipPath><clipPath id="720f8c8815"><path d="M 186.316406 276.648438 C 186.316406 227.308594 226.308594 187.316406 275.644531 187.316406 C 324.984375 187.316406 364.964844 227.308594 364.964844 276.648438 C 364.964844 325.984375 324.976562 365.96875 275.644531 365.96875 C 226.316406 365.96875 186.316406 325.976562 186.316406 276.648438 Z M 186.316406 276.648438 " clip-rule="nonzero"/></clipPath><clipPath id="933b8247cf"><path d="M 185.429688 186.429688 L 366 186.429688 L 366 367 L 185.429688 367 Z M 185.429688 186.429688 " clip-rule="nonzero"/></clipPath><clipPath id="480dfed006"><path d="M 185.429688 276.648438 C 185.429688 226.820312 225.820312 186.429688 275.644531 186.429688 L 275.644531 187.316406 L 275.644531 186.429688 C 325.472656 186.429688 365.863281 226.820312 365.863281 276.648438 L 364.976562 276.648438 L 365.863281 276.648438 C 365.863281 326.472656 325.472656 366.863281 275.644531 366.863281 L 275.644531 365.976562 L 275.644531 366.863281 C 225.820312 366.855469 185.429688 326.464844 185.429688 276.648438 L 187.203125 276.648438 L 185.429688 276.648438 M 187.203125 276.648438 C 187.203125 277.136719 186.804688 277.535156 186.316406 277.535156 C 185.828125 277.535156 185.429688 277.136719 185.429688 276.648438 C 185.429688 276.15625 185.828125 275.757812 186.316406 275.757812 C 186.804688 275.757812 187.203125 276.15625 187.203125 276.648438 C 187.203125 325.488281 226.796875 365.085938 275.644531 365.085938 C 324.496094 365.085938 364.085938 325.496094 364.085938 276.648438 C 364.085938 227.796875 324.488281 188.207031 275.644531 188.207031 L 275.644531 187.316406 L 275.644531 188.207031 C 226.796875 188.207031 187.203125 227.796875 187.203125 276.648438 Z M 187.203125 276.648438 " clip-rule="nonzero"/></clipPath><clipPath id="9ef93755fd"><path d="M 0.703125 188.03125 L 179.722656 188.03125 L 179.722656 367 L 0.703125 367 Z M 0.703125 188.03125 " clip-rule="nonzero"/></clipPath><clipPath id="b85455fe2b"><path d="M 90.21875 366.863281 C 40.878906 366.863281 0.886719 326.871094 0.886719 277.535156 C 0.886719 228.195312 40.878906 188.214844 90.21875 188.214844 C 139.554688 188.214844 179.539062 228.207031 179.539062 277.535156 C 179.539062 326.863281 139.546875 366.863281 90.21875 366.863281 Z M 90.21875 366.863281 " clip-rule="nonzero"/></clipPath><mask id="09482754bc"><g filter="url(#f72f19aab9)"><rect x="-55.575" width="666.9" fill="#000000" y="-55.575001" height="666.900006" fill-opacity="0.5089"/></g></mask><clipPath id="efb5d5f996"><path d="M 0.71875 0.0742188 L 179.679688 0.0742188 L 179.679688 179 L 0.71875 179 Z M 0.71875 0.0742188 " clip-rule="nonzero"/></clipPath><clipPath id="e0817468b7"><path d="M 90.21875 178.863281 C 40.878906 178.863281 0.886719 138.871094 0.886719 89.535156 C 0.886719 40.195312 40.878906 0.214844 90.21875 0.214844 C 139.554688 0.214844 179.539062 40.207031 179.539062 89.535156 C 179.539062 138.863281 139.546875 178.863281 90.21875 178.863281 Z M 90.21875 178.863281 " clip-rule="nonzero"/></clipPath><clipPath id="281b765ea2"><rect x="0" width="180" y="0" height="179"/></clipPath><clipPath id="fe2caf845c"><path d="M 0 187 L 181 187 L 181 367.753906 L 0 367.753906 Z M 0 187 " clip-rule="nonzero"/></clipPath><clipPath id="a4c117c80e"><path d="M 90.21875 367.753906 C 40.390625 367.753906 0 327.363281 0 277.535156 L 0.886719 277.535156 L 0 277.535156 C 0 227.707031 40.390625 187.316406 90.21875 187.316406 L 90.21875 188.207031 L 90.21875 187.316406 C 140.042969 187.316406 180.4375 227.707031 180.4375 277.535156 L 179.546875 277.535156 L 180.4375 277.535156 C 180.425781 327.363281 140.035156 367.753906 90.21875 367.753906 L 90.21875 365.976562 L 90.21875 367.753906 M 90.21875 365.976562 C 90.707031 365.976562 91.105469 366.375 91.105469 366.863281 C 91.105469 367.351562 90.707031 367.753906 90.21875 367.753906 C 89.730469 367.753906 89.328125 367.351562 89.328125 366.863281 C 89.328125 366.375 89.730469 365.976562 90.21875 365.976562 C 139.058594 365.976562 178.660156 326.382812 178.660156 277.535156 C 178.660156 228.683594 139.066406 189.09375 90.21875 189.09375 C 41.367188 189.09375 1.777344 228.695312 1.777344 277.535156 L 0.886719 277.535156 L 1.777344 277.535156 C 1.777344 326.382812 41.367188 365.976562 90.21875 365.976562 Z M 90.21875 365.976562 " clip-rule="nonzero"/></clipPath><clipPath id="20601aac0e"><path d="M 28 216 L 152.675781 216 L 152.675781 340.910156 L 28 340.910156 Z M 28 216 " clip-rule="nonzero"/></clipPath><clipPath id="df55632f47"><path d="M 28.144531 278.445312 C 28.144531 244.167969 55.933594 216.375 90.214844 216.375 C 124.492188 216.375 152.285156 244.167969 152.285156 278.445312 C 152.285156 312.722656 124.492188 340.515625 90.214844 340.515625 C 55.933594 340.515625 28.144531 312.722656 28.144531 278.445312 Z M 28.144531 278.445312 " clip-rule="nonzero"/></clipPath><clipPath id="58e3c60873"><path d="M 27.253906 215.488281 L 153.660156 215.488281 L 153.660156 341.894531 L 27.253906 341.894531 Z M 27.253906 215.488281 " clip-rule="nonzero"/></clipPath><clipPath id="7b79ab8732"><path d="M 27.253906 278.445312 C 27.253906 243.671875 55.4375 215.488281 90.214844 215.488281 L 90.214844 216.375 L 90.214844 215.488281 C 124.980469 215.488281 153.171875 243.671875 153.171875 278.445312 C 153.171875 313.222656 124.988281 341.40625 90.214844 341.40625 L 90.214844 340.515625 L 90.214844 341.40625 C 55.4375 341.40625 27.253906 313.214844 27.253906 278.445312 L 28.144531 278.445312 L 28.898438 278.917969 C 28.683594 279.253906 28.277344 279.40625 27.902344 279.300781 C 27.53125 279.191406 27.253906 278.835938 27.253906 278.445312 M 29.03125 278.445312 L 28.144531 278.445312 L 27.386719 277.976562 C 27.601562 277.636719 28.007812 277.488281 28.382812 277.59375 C 28.757812 277.699219 29.023438 278.054688 29.023438 278.445312 C 29.023438 312.234375 56.414062 339.628906 90.203125 339.628906 C 123.992188 339.628906 151.386719 312.234375 151.386719 278.445312 L 152.273438 278.445312 L 151.386719 278.445312 C 151.394531 244.65625 124.003906 217.265625 90.214844 217.265625 L 90.214844 216.375 L 90.214844 217.265625 C 56.421875 217.265625 29.03125 244.65625 29.03125 278.445312 Z M 29.03125 278.445312 " clip-rule="nonzero"/></clipPath><clipPath id="0c0e55dc50"><path d="M 52.148438 240.378906 L 128.613281 240.378906 L 128.613281 316.847656 L 52.148438 316.847656 Z M 52.148438 240.378906 " clip-rule="nonzero"/></clipPath><clipPath id="164f3b7835"><path d="M 186 0.703125 L 364.976562 0.703125 L 364.976562 179.722656 L 186 179.722656 Z M 186 0.703125 " clip-rule="nonzero"/></clipPath><clipPath id="82f71d4aaa"><path d="M 364.792969 90.21875 C 364.792969 40.878906 324.800781 0.886719 275.472656 0.886719 C 226.144531 0.886719 186.144531 40.878906 186.144531 90.21875 C 186.144531 139.554688 226.132812 179.539062 275.472656 179.539062 C 324.808594 179.539062 364.800781 139.546875 364.800781 90.210938 Z M 364.792969 90.21875 " clip-rule="nonzero"/></clipPath><mask id="117e4d3e81"><g filter="url(#f72f19aab9)"><rect x="-55.575" width="666.9" fill="#000000" y="-55.575001" height="666.900006" fill-opacity="0.5089"/></g></mask><clipPath id="dd4f926e8e"><path d="M 0 0.71875 L 178.875 0.71875 L 178.875 179.679688 L 0 179.679688 Z M 0 0.71875 " clip-rule="nonzero"/></clipPath><clipPath id="5b26d00ccb"><path d="M 178.792969 90.21875 C 178.792969 40.878906 138.800781 0.886719 89.472656 0.886719 C 40.144531 0.886719 0.144531 40.878906 0.144531 90.21875 C 0.144531 139.554688 40.132812 179.539062 89.472656 179.539062 C 138.808594 179.539062 178.800781 139.546875 178.800781 90.210938 Z M 178.792969 90.21875 " clip-rule="nonzero"/></clipPath><clipPath id="d830477e6a"><rect x="0" width="179" y="0" height="180"/></clipPath><clipPath id="36ab346431"><path d="M 185.253906 0 L 366 0 L 366 181 L 185.253906 181 Z M 185.253906 0 " clip-rule="nonzero"/></clipPath><clipPath id="87ca8acbfd"><path d="M 363.90625 90.21875 C 363.90625 41.367188 324.3125 1.777344 275.472656 1.777344 L 275.472656 0.886719 L 275.472656 1.777344 L 275.472656 0.886719 L 275.472656 1.777344 C 226.621094 1.777344 187.03125 41.367188 187.03125 90.21875 L 186.144531 90.21875 L 187.03125 90.21875 C 187.03125 139.058594 226.621094 178.660156 275.472656 178.660156 L 275.472656 179.546875 L 275.472656 178.660156 C 324.3125 178.660156 363.914062 139.066406 363.914062 90.21875 C 363.914062 89.730469 364.3125 89.328125 364.800781 89.328125 C 365.289062 89.328125 365.691406 89.730469 365.691406 90.21875 L 363.914062 90.21875 M 365.691406 90.21875 C 365.691406 90.707031 365.289062 91.105469 364.800781 91.105469 C 364.3125 91.105469 363.914062 90.707031 363.914062 90.21875 L 365.691406 90.21875 C 365.691406 140.042969 325.300781 180.4375 275.472656 180.4375 C 225.644531 180.4375 185.253906 140.035156 185.253906 90.21875 C 185.253906 40.398438 225.644531 0 275.472656 0 C 325.300781 0 365.679688 40.390625 365.679688 90.21875 Z M 365.691406 90.21875 " clip-rule="nonzero"/></clipPath><clipPath id="59c714b0a0"><path d="M 215.019531 27.113281 L 339.953125 27.113281 L 339.953125 152 L 215.019531 152 Z M 215.019531 27.113281 " clip-rule="nonzero"/></clipPath><clipPath id="ea3d9db014"><path d="M 277.484375 27.507812 C 311.761719 27.507812 339.554688 55.300781 339.554688 89.578125 C 339.554688 123.859375 311.761719 151.648438 277.484375 151.648438 C 243.207031 151.648438 215.414062 123.859375 215.414062 89.578125 C 215.414062 55.300781 243.207031 27.507812 277.484375 27.507812 Z M 277.484375 27.507812 " clip-rule="nonzero"/></clipPath><clipPath id="386831a5fd"><path d="M 214.039062 26.621094 L 340.445312 26.621094 L 340.445312 153 L 214.039062 153 Z M 214.039062 26.621094 " clip-rule="nonzero"/></clipPath><clipPath id="49f567b225"><path d="M 277.484375 26.621094 C 312.261719 26.621094 340.445312 54.804688 340.445312 89.578125 L 339.554688 89.578125 L 340.445312 89.578125 C 340.445312 124.347656 312.261719 152.539062 277.484375 152.539062 C 242.710938 152.539062 214.527344 124.355469 214.527344 89.578125 L 215.414062 89.578125 L 214.527344 89.578125 C 214.527344 54.804688 242.71875 26.621094 277.484375 26.621094 L 277.484375 27.507812 L 277.015625 28.265625 C 276.675781 28.050781 276.527344 27.640625 276.632812 27.269531 C 276.738281 26.894531 277.09375 26.621094 277.484375 26.621094 M 277.484375 28.398438 L 277.484375 27.507812 L 277.957031 26.753906 C 278.292969 26.96875 278.445312 27.375 278.339844 27.75 C 278.230469 28.121094 277.875 28.386719 277.484375 28.386719 C 243.695312 28.386719 216.304688 55.78125 216.304688 89.570312 C 216.304688 123.359375 243.695312 150.753906 277.484375 150.753906 L 277.484375 151.640625 L 277.484375 150.753906 C 311.273438 150.761719 338.667969 123.367188 338.667969 89.578125 L 339.554688 89.578125 L 338.667969 89.578125 C 338.667969 55.789062 311.273438 28.398438 277.484375 28.398438 Z M 277.484375 28.398438 " clip-rule="nonzero"/></clipPath><clipPath id="b91cfff684"><path d="M 240.609375 52.894531 L 296 52.894531 L 296 108 L 240.609375 108 Z M 240.609375 52.894531 " clip-rule="nonzero"/></clipPath><clipPath id="cc137f4c46"><path d="M 277.089844 52.886719 C 258.445312 52.886719 259.609375 61.015625 259.609375 61.015625 L 259.628906 69.4375 L 277.421875 69.4375 L 277.421875 71.964844 L 252.5625 71.964844 C 252.5625 71.964844 240.632812 70.605469 240.632812 89.519531 C 240.632812 108.433594 251.046875 107.761719 251.046875 107.761719 L 257.261719 107.761719 L 257.261719 98.984375 C 257.261719 98.984375 256.925781 88.515625 267.507812 88.515625 L 285.152344 88.515625 C 285.152344 88.515625 295.066406 88.675781 295.066406 78.882812 L 295.066406 62.6875 C 295.066406 62.6875 296.570312 52.886719 277.089844 52.886719 Z M 267.277344 58.550781 C 269.046875 58.550781 270.480469 59.988281 270.480469 61.769531 C 270.480469 63.546875 269.046875 64.988281 267.277344 64.988281 C 265.507812 64.988281 264.078125 63.546875 264.078125 61.769531 C 264.078125 59.988281 265.507812 58.550781 267.277344 58.550781 Z M 267.277344 58.550781 " clip-rule="nonzero"/></clipPath><linearGradient x1="0.00416823" gradientTransform="matrix(54.458786, 0, 0, 54.878507, 240.633663, 52.887092)" y1="-0.00405742" x2="1.027757" gradientUnits="userSpaceOnUse" y2="1.01158" id="2a542f680f"><stop stop-opacity="1" stop-color="rgb(21.998596%, 49.398804%, 72.198486%)" offset="0"/><stop stop-opacity="1" stop-color="rgb(21.99707%, 49.383545%, 72.171021%)" offset="0.125"/><stop stop-opacity="1" stop-color="rgb(21.986389%, 49.269104%, 71.974182%)" offset="0.140625"/><stop stop-opacity="1" stop-color="rgb(21.966553%, 49.072266%, 71.633911%)" offset="0.15625"/><stop stop-opacity="1" stop-color="rgb(21.948242%, 48.875427%, 71.29364%)" offset="0.171875"/><stop stop-opacity="1" stop-color="rgb(21.928406%, 48.678589%, 70.953369%)" offset="0.1875"/><stop stop-opacity="1" stop-color="rgb(21.910095%, 48.48175%, 70.611572%)" offset="0.203125"/><stop stop-opacity="1" stop-color="rgb(21.890259%, 48.286438%, 70.271301%)" offset="0.21875"/><stop stop-opacity="1" stop-color="rgb(21.870422%, 48.0896%, 69.93103%)" offset="0.234375"/><stop stop-opacity="1" stop-color="rgb(21.852112%, 47.892761%, 69.590759%)" offset="0.25"/><stop stop-opacity="1" stop-color="rgb(21.832275%, 47.695923%, 69.250488%)" offset="0.265625"/><stop stop-opacity="1" stop-color="rgb(21.813965%, 47.499084%, 68.908691%)" offset="0.28125"/><stop stop-opacity="1" stop-color="rgb(21.794128%, 47.302246%, 68.56842%)" offset="0.296875"/><stop stop-opacity="1" stop-color="rgb(21.775818%, 47.105408%, 68.228149%)" offset="0.3125"/><stop stop-opacity="1" stop-color="rgb(21.755981%, 46.908569%, 67.887878%)" offset="0.328125"/><stop stop-opacity="1" stop-color="rgb(21.736145%, 46.711731%, 67.546082%)" offset="0.34375"/><stop stop-opacity="1" stop-color="rgb(21.717834%, 46.514893%, 67.205811%)" offset="0.359375"/><stop stop-opacity="1" stop-color="rgb(21.697998%, 46.31958%, 66.86554%)" offset="0.375"/><stop stop-opacity="1" stop-color="rgb(21.679688%, 46.122742%, 66.525269%)" offset="0.390625"/><stop stop-opacity="1" stop-color="rgb(21.659851%, 45.925903%, 66.184998%)" offset="0.40625"/><stop stop-opacity="1" stop-color="rgb(21.641541%, 45.729065%, 65.843201%)" offset="0.421875"/><stop stop-opacity="1" stop-color="rgb(21.621704%, 45.532227%, 65.50293%)" offset="0.4375"/><stop stop-opacity="1" stop-color="rgb(21.601868%, 45.335388%, 65.162659%)" offset="0.453125"/><stop stop-opacity="1" stop-color="rgb(21.583557%, 45.13855%, 64.822388%)" offset="0.46875"/><stop stop-opacity="1" stop-color="rgb(21.563721%, 44.941711%, 64.482117%)" offset="0.484375"/><stop stop-opacity="1" stop-color="rgb(21.54541%, 44.744873%, 64.14032%)" offset="0.494335"/><stop stop-opacity="1" stop-color="rgb(21.536255%, 44.647217%, 63.970947%)" offset="0.5"/><stop stop-opacity="1" stop-color="rgb(21.525574%, 44.548035%, 63.800049%)" offset="0.505665"/><stop stop-opacity="1" stop-color="rgb(21.516418%, 44.450378%, 63.630676%)" offset="0.515625"/><stop stop-opacity="1" stop-color="rgb(21.505737%, 44.352722%, 63.459778%)" offset="0.53125"/><stop stop-opacity="1" stop-color="rgb(21.487427%, 44.155884%, 63.119507%)" offset="0.546875"/><stop stop-opacity="1" stop-color="rgb(21.46759%, 43.959045%, 62.77771%)" offset="0.5625"/><stop stop-opacity="1" stop-color="rgb(21.44928%, 43.762207%, 62.437439%)" offset="0.578125"/><stop stop-opacity="1" stop-color="rgb(21.429443%, 43.565369%, 62.097168%)" offset="0.59375"/><stop stop-opacity="1" stop-color="rgb(21.411133%, 43.36853%, 61.756897%)" offset="0.609375"/><stop stop-opacity="1" stop-color="rgb(21.391296%, 43.171692%, 61.416626%)" offset="0.625"/><stop stop-opacity="1" stop-color="rgb(21.37146%, 42.974854%, 61.074829%)" offset="0.640625"/><stop stop-opacity="1" stop-color="rgb(21.353149%, 42.778015%, 60.734558%)" offset="0.65625"/><stop stop-opacity="1" stop-color="rgb(21.333313%, 42.582703%, 60.394287%)" offset="0.671875"/><stop stop-opacity="1" stop-color="rgb(21.315002%, 42.385864%, 60.054016%)" offset="0.6875"/><stop stop-opacity="1" stop-color="rgb(21.295166%, 42.189026%, 59.713745%)" offset="0.703125"/><stop stop-opacity="1" stop-color="rgb(21.276855%, 41.992188%, 59.371948%)" offset="0.71875"/><stop stop-opacity="1" stop-color="rgb(21.257019%, 41.795349%, 59.031677%)" offset="0.734375"/><stop stop-opacity="1" stop-color="rgb(21.237183%, 41.598511%, 58.691406%)" offset="0.75"/><stop stop-opacity="1" stop-color="rgb(21.218872%, 41.401672%, 58.351135%)" offset="0.765625"/><stop stop-opacity="1" stop-color="rgb(21.203613%, 41.25061%, 58.09021%)" offset="0.78125"/><stop stop-opacity="1" stop-color="rgb(21.199036%, 41.19873%, 57.998657%)" offset="0.8125"/><stop stop-opacity="1" stop-color="rgb(21.199036%, 41.19873%, 57.998657%)" offset="0.875"/><stop stop-opacity="1" stop-color="rgb(21.199036%, 41.19873%, 57.998657%)" offset="1"/></linearGradient><clipPath id="110a1b1ab9"><path d="M 259 71 L 314.078125 71 L 314.078125 126.363281 L 259 126.363281 Z M 259 71 " clip-rule="nonzero"/></clipPath><clipPath id="16385bfbf4"><path d="M 277.617188 126.34375 C 296.261719 126.34375 295.097656 118.210938 295.097656 118.210938 L 295.078125 109.789062 L 277.285156 109.789062 L 277.285156 107.261719 L 302.140625 107.261719 C 302.140625 107.261719 314.074219 108.621094 314.074219 89.710938 C 314.074219 70.796875 303.660156 71.464844 303.660156 71.464844 L 297.445312 71.464844 L 297.445312 80.242188 C 297.445312 80.242188 297.78125 90.710938 287.199219 90.710938 L 269.550781 90.710938 C 269.550781 90.710938 259.640625 90.550781 259.640625 100.347656 L 259.640625 116.539062 C 259.640625 116.539062 258.132812 126.34375 277.617188 126.34375 Z M 287.425781 120.679688 C 285.660156 120.679688 284.226562 119.238281 284.226562 117.460938 C 284.226562 115.679688 285.660156 114.242188 287.425781 114.242188 C 289.199219 114.242188 290.628906 115.679688 290.628906 117.460938 C 290.628906 119.238281 289.199219 120.679688 287.425781 120.679688 Z M 287.425781 120.679688 " clip-rule="nonzero"/></clipPath><linearGradient x1="-0.0326454" gradientTransform="matrix(54.460437, 0, 0, 54.878786, 259.613015, 71.463026)" y1="-0.00636596" x2="1.013978" gradientUnits="userSpaceOnUse" y2="0.985247" id="3740a62db1"><stop stop-opacity="1" stop-color="rgb(100%, 87.799072%, 32.199097%)" offset="0"/><stop stop-opacity="1" stop-color="rgb(100%, 87.799072%, 32.199097%)" offset="0.125"/><stop stop-opacity="1" stop-color="rgb(100%, 87.799072%, 32.199097%)" offset="0.1875"/><stop stop-opacity="1" stop-color="rgb(100%, 87.759399%, 32.15332%)" offset="0.21875"/><stop stop-opacity="1" stop-color="rgb(100%, 87.590027%, 31.959534%)" offset="0.234375"/><stop stop-opacity="1" stop-color="rgb(100%, 87.332153%, 31.661987%)" offset="0.25"/><stop stop-opacity="1" stop-color="rgb(100%, 87.07428%, 31.365967%)" offset="0.265625"/><stop stop-opacity="1" stop-color="rgb(100%, 86.816406%, 31.06842%)" offset="0.28125"/><stop stop-opacity="1" stop-color="rgb(100%, 86.558533%, 30.7724%)" offset="0.296875"/><stop stop-opacity="1" stop-color="rgb(100%, 86.300659%, 30.474854%)" offset="0.3125"/><stop stop-opacity="1" stop-color="rgb(100%, 86.04126%, 30.177307%)" offset="0.328125"/><stop stop-opacity="1" stop-color="rgb(100%, 85.783386%, 29.881287%)" offset="0.34375"/><stop stop-opacity="1" stop-color="rgb(100%, 85.525513%, 29.58374%)" offset="0.359375"/><stop stop-opacity="1" stop-color="rgb(100%, 85.267639%, 29.28772%)" offset="0.375"/><stop stop-opacity="1" stop-color="rgb(100%, 85.009766%, 28.990173%)" offset="0.390625"/><stop stop-opacity="1" stop-color="rgb(100%, 84.751892%, 28.694153%)" offset="0.40625"/><stop stop-opacity="1" stop-color="rgb(100%, 84.494019%, 28.396606%)" offset="0.421875"/><stop stop-opacity="1" stop-color="rgb(100%, 84.236145%, 28.100586%)" offset="0.4375"/><stop stop-opacity="1" stop-color="rgb(100%, 83.978271%, 27.80304%)" offset="0.453125"/><stop stop-opacity="1" stop-color="rgb(100%, 83.720398%, 27.505493%)" offset="0.46875"/><stop stop-opacity="1" stop-color="rgb(100%, 83.460999%, 27.209473%)" offset="0.482837"/><stop stop-opacity="1" stop-color="rgb(100%, 83.332825%, 27.061462%)" offset="0.484375"/><stop stop-opacity="1" stop-color="rgb(100%, 83.203125%, 26.911926%)" offset="0.5"/><stop stop-opacity="1" stop-color="rgb(100%, 82.945251%, 26.615906%)" offset="0.515625"/><stop stop-opacity="1" stop-color="rgb(100%, 82.687378%, 26.318359%)" offset="0.517163"/><stop stop-opacity="1" stop-color="rgb(100%, 82.559204%, 26.170349%)" offset="0.53125"/><stop stop-opacity="1" stop-color="rgb(100%, 82.429504%, 26.022339%)" offset="0.546875"/><stop stop-opacity="1" stop-color="rgb(100%, 82.171631%, 25.724792%)" offset="0.5625"/><stop stop-opacity="1" stop-color="rgb(100%, 81.913757%, 25.428772%)" offset="0.578125"/><stop stop-opacity="1" stop-color="rgb(100%, 81.655884%, 25.131226%)" offset="0.59375"/><stop stop-opacity="1" stop-color="rgb(100%, 81.39801%, 24.835205%)" offset="0.609375"/><stop stop-opacity="1" stop-color="rgb(100%, 81.138611%, 24.537659%)" offset="0.625"/><stop stop-opacity="1" stop-color="rgb(100%, 80.880737%, 24.240112%)" offset="0.640625"/><stop stop-opacity="1" stop-color="rgb(100%, 80.622864%, 23.944092%)" offset="0.65625"/><stop stop-opacity="1" stop-color="rgb(100%, 80.36499%, 23.646545%)" offset="0.671875"/><stop stop-opacity="1" stop-color="rgb(100%, 80.107117%, 23.350525%)" offset="0.6875"/><stop stop-opacity="1" stop-color="rgb(100%, 79.849243%, 23.052979%)" offset="0.703125"/><stop stop-opacity="1" stop-color="rgb(100%, 79.59137%, 22.756958%)" offset="0.71875"/><stop stop-opacity="1" stop-color="rgb(100%, 79.333496%, 22.459412%)" offset="0.734375"/><stop stop-opacity="1" stop-color="rgb(100%, 79.075623%, 22.163391%)" offset="0.75"/><stop stop-opacity="1" stop-color="rgb(100%, 78.816223%, 21.865845%)" offset="0.765625"/><stop stop-opacity="1" stop-color="rgb(100%, 78.55835%, 21.568298%)" offset="0.78125"/><stop stop-opacity="1" stop-color="rgb(100%, 78.300476%, 21.272278%)" offset="0.796875"/><stop stop-opacity="1" stop-color="rgb(100%, 78.042603%, 20.974731%)" offset="0.8125"/><stop stop-opacity="1" stop-color="rgb(100%, 77.784729%, 20.678711%)" offset="0.828125"/><stop stop-opacity="1" stop-color="rgb(100%, 77.526855%, 20.381165%)" offset="0.84375"/><stop stop-opacity="1" stop-color="rgb(100%, 77.268982%, 20.085144%)" offset="0.859375"/><stop stop-opacity="1" stop-color="rgb(100%, 77.011108%, 19.787598%)" offset="0.875"/><stop stop-opacity="1" stop-color="rgb(100%, 76.753235%, 19.491577%)" offset="0.890625"/><stop stop-opacity="1" stop-color="rgb(100%, 76.560974%, 19.270325%)" offset="0.90625"/><stop stop-opacity="1" stop-color="rgb(100%, 76.499939%, 19.198608%)" offset="0.9375"/><stop stop-opacity="1" stop-color="rgb(100%, 76.499939%, 19.198608%)" offset="1"/></linearGradient><clipPath id="9f1fc65b0b"><path d="M 375.183594 188.03125 L 554.203125 188.03125 L 554.203125 367 L 375.183594 367 Z M 375.183594 188.03125 " clip-rule="nonzero"/></clipPath><clipPath id="bca93bc211"><path d="M 464.699219 366.863281 C 415.359375 366.863281 375.367188 326.871094 375.367188 277.535156 C 375.367188 228.195312 415.359375 188.214844 464.699219 188.214844 C 514.035156 188.214844 554.019531 228.207031 554.019531 277.535156 C 554.019531 326.863281 514.027344 366.863281 464.699219 366.863281 Z M 464.699219 366.863281 " clip-rule="nonzero"/></clipPath><mask id="1dfda88f07"><g filter="url(#f72f19aab9)"><rect x="-55.575" width="666.9" fill="#000000" y="-55.575001" height="666.900006" fill-opacity="0.5089"/></g></mask><clipPath id="2d8403c8b2"><path d="M 0.191406 0.0742188 L 179.152344 0.0742188 L 179.152344 179 L 0.191406 179 Z M 0.191406 0.0742188 " clip-rule="nonzero"/></clipPath><clipPath id="38de4f9e61"><path d="M 89.699219 178.863281 C 40.359375 178.863281 0.367188 138.871094 0.367188 89.535156 C 0.367188 40.195312 40.359375 0.214844 89.699219 0.214844 C 139.035156 0.214844 179.019531 40.207031 179.019531 89.535156 C 179.019531 138.863281 139.027344 178.863281 89.699219 178.863281 Z M 89.699219 178.863281 " clip-rule="nonzero"/></clipPath><clipPath id="154a2d8e60"><rect x="0" width="180" y="0" height="179"/></clipPath><clipPath id="dd0e241026"><path d="M 374.480469 187 L 555 187 L 555 367.753906 L 374.480469 367.753906 Z M 374.480469 187 " clip-rule="nonzero"/></clipPath><clipPath id="df82049aaf"><path d="M 464.699219 367.753906 C 414.871094 367.753906 374.480469 327.363281 374.480469 277.535156 L 375.367188 277.535156 L 374.480469 277.535156 C 374.480469 227.707031 414.871094 187.316406 464.699219 187.316406 L 464.699219 188.207031 L 464.699219 187.316406 C 514.523438 187.316406 554.914062 227.707031 554.914062 277.535156 L 554.027344 277.535156 L 554.914062 277.535156 C 554.90625 327.363281 514.515625 367.753906 464.699219 367.753906 L 464.699219 365.976562 L 464.699219 367.753906 M 464.699219 365.976562 C 465.1875 365.976562 465.585938 366.375 465.585938 366.863281 C 465.585938 367.351562 465.1875 367.753906 464.699219 367.753906 C 464.210938 367.753906 463.808594 367.351562 463.808594 366.863281 C 463.808594 366.375 464.210938 365.976562 464.699219 365.976562 C 513.539062 365.976562 553.140625 326.382812 553.140625 277.535156 C 553.140625 228.683594 513.546875 189.09375 464.699219 189.09375 C 415.847656 189.09375 376.257812 228.695312 376.257812 277.535156 L 375.367188 277.535156 L 376.257812 277.535156 C 376.257812 326.382812 415.847656 365.976562 464.699219 365.976562 Z M 464.699219 365.976562 " clip-rule="nonzero"/></clipPath><clipPath id="3a560b64e9"><path d="M 402.308594 216 L 527 216 L 527 340.910156 L 402.308594 340.910156 Z M 402.308594 216 " clip-rule="nonzero"/></clipPath><clipPath id="000c7fa916"><path d="M 402.707031 278.445312 C 402.707031 244.167969 430.5 216.375 464.777344 216.375 C 499.054688 216.375 526.847656 244.167969 526.847656 278.445312 C 526.847656 312.722656 499.054688 340.515625 464.777344 340.515625 C 430.5 340.515625 402.707031 312.722656 402.707031 278.445312 Z M 402.707031 278.445312 " clip-rule="nonzero"/></clipPath><clipPath id="401a09c305"><path d="M 401.816406 215.488281 L 528 215.488281 L 528 341.894531 L 401.816406 341.894531 Z M 401.816406 215.488281 " clip-rule="nonzero"/></clipPath><clipPath id="b9dbb07f88"><path d="M 401.816406 278.445312 C 401.816406 243.671875 430 215.488281 464.777344 215.488281 L 464.777344 216.375 L 464.777344 215.488281 C 499.542969 215.488281 527.734375 243.671875 527.734375 278.445312 C 527.734375 313.222656 499.550781 341.40625 464.777344 341.40625 L 464.777344 340.515625 L 464.777344 341.40625 C 430 341.40625 401.816406 313.214844 401.816406 278.445312 L 402.707031 278.445312 L 403.460938 278.917969 C 403.246094 279.253906 402.839844 279.40625 402.464844 279.300781 C 402.09375 279.191406 401.816406 278.835938 401.816406 278.445312 M 403.59375 278.445312 L 402.707031 278.445312 L 401.949219 277.976562 C 402.164062 277.636719 402.574219 277.488281 402.945312 277.59375 C 403.320312 277.699219 403.585938 278.054688 403.585938 278.445312 C 403.585938 312.234375 430.976562 339.628906 464.765625 339.628906 C 498.558594 339.628906 525.949219 312.234375 525.949219 278.445312 L 526.835938 278.445312 L 525.949219 278.445312 C 525.957031 244.65625 498.566406 217.265625 464.777344 217.265625 L 464.777344 216.375 L 464.777344 217.265625 C 430.988281 217.265625 403.59375 244.65625 403.59375 278.445312 Z M 403.59375 278.445312 " clip-rule="nonzero"/></clipPath><clipPath id="25e749425b"><path d="M 433.589844 238.738281 L 475 238.738281 L 475 301 L 433.589844 301 Z M 433.589844 238.738281 " clip-rule="nonzero"/></clipPath><clipPath id="57ebe68cfe"><path d="M 470 259 L 495.808594 259 L 495.808594 318.203125 L 470 318.203125 Z M 470 259 " clip-rule="nonzero"/></clipPath><clipPath id="406ced1e3c"><path d="M 481 238.738281 L 495 238.738281 L 495 252 L 481 252 Z M 481 238.738281 " clip-rule="nonzero"/></clipPath><clipPath id="18159a6082"><path d="M 186 375.179688 L 364.972656 375.179688 L 364.972656 554.195312 L 186 554.195312 Z M 186 375.179688 " clip-rule="nonzero"/></clipPath><clipPath id="23003a192f"><path d="M 364.789062 464.683594 C 364.789062 514.023438 324.796875 554.011719 275.460938 554.011719 C 226.121094 554.011719 186.136719 514.023438 186.136719 464.683594 C 186.136719 415.34375 226.128906 375.363281 275.460938 375.363281 C 324.789062 375.363281 364.789062 415.355469 364.789062 464.683594 Z M 364.789062 464.683594 " clip-rule="nonzero"/></clipPath><mask id="1869f0e2f9"><g filter="url(#f72f19aab9)"><rect x="-55.575" width="666.9" fill="#000000" y="-55.575001" height="666.900006" fill-opacity="0.5089"/></g></mask><clipPath id="28b2906d9c"><path d="M 0 0.191406 L 178.875 0.191406 L 178.875 179.152344 L 0 179.152344 Z M 0 0.191406 " clip-rule="nonzero"/></clipPath><clipPath id="17ea7fe827"><path d="M 178.789062 89.683594 C 178.789062 139.023438 138.796875 179.011719 89.460938 179.011719 C 40.121094 179.011719 0.136719 139.023438 0.136719 89.683594 C 0.136719 40.34375 40.128906 0.363281 89.460938 0.363281 C 138.789062 0.363281 178.789062 40.355469 178.789062 89.683594 Z M 178.789062 89.683594 " clip-rule="nonzero"/></clipPath><clipPath id="c8c766b9f9"><rect x="0" width="179" y="0" height="180"/></clipPath><clipPath id="d0c765c40a"><path d="M 185 374 L 365.675781 374 L 365.675781 554.902344 L 185 554.902344 Z M 185 374 " clip-rule="nonzero"/></clipPath><clipPath id="2ad7803d20"><path d="M 365.675781 464.683594 C 365.675781 514.511719 325.285156 554.902344 275.460938 554.902344 L 275.460938 554.011719 L 275.460938 554.902344 C 225.632812 554.902344 185.242188 514.511719 185.242188 464.683594 L 186.128906 464.683594 L 185.242188 464.683594 C 185.242188 414.855469 225.632812 374.464844 275.460938 374.464844 L 275.460938 375.355469 L 275.460938 374.464844 C 325.285156 374.472656 365.675781 414.867188 365.675781 464.683594 L 363.898438 464.683594 L 365.675781 464.683594 M 363.898438 464.683594 C 363.898438 464.195312 364.300781 463.796875 364.789062 463.796875 C 365.277344 463.796875 365.675781 464.195312 365.675781 464.683594 C 365.675781 465.171875 365.277344 465.570312 364.789062 465.570312 C 364.300781 465.570312 363.898438 465.171875 363.898438 464.683594 C 363.898438 415.84375 324.308594 376.242188 275.460938 376.242188 C 226.609375 376.242188 187.019531 415.835938 187.019531 464.683594 C 187.019531 513.53125 226.617188 553.125 275.460938 553.125 L 275.460938 554.011719 L 275.460938 553.125 C 324.308594 553.125 363.898438 513.53125 363.898438 464.683594 Z M 363.898438 464.683594 " clip-rule="nonzero"/></clipPath><clipPath id="720e3e35cd"><path d="M 215.019531 402 L 339.953125 402 L 339.953125 526.605469 L 215.019531 526.605469 Z M 215.019531 402 " clip-rule="nonzero"/></clipPath><clipPath id="93137eb80c"><path d="M 277.484375 402.070312 C 311.761719 402.070312 339.554688 429.863281 339.554688 464.140625 C 339.554688 498.421875 311.761719 526.210938 277.484375 526.210938 C 243.207031 526.210938 215.414062 498.421875 215.414062 464.140625 C 215.414062 429.863281 243.207031 402.070312 277.484375 402.070312 Z M 277.484375 402.070312 " clip-rule="nonzero"/></clipPath><clipPath id="69c66232cf"><path d="M 214.039062 401.183594 L 340.445312 401.183594 L 340.445312 527.589844 L 214.039062 527.589844 Z M 214.039062 401.183594 " clip-rule="nonzero"/></clipPath><clipPath id="5031c776be"><path d="M 277.484375 401.183594 C 312.261719 401.183594 340.445312 429.367188 340.445312 464.140625 L 339.554688 464.140625 L 340.445312 464.140625 C 340.445312 498.910156 312.261719 527.101562 277.484375 527.101562 C 242.710938 527.101562 214.527344 498.917969 214.527344 464.140625 L 215.414062 464.140625 L 214.527344 464.140625 C 214.527344 429.367188 242.71875 401.183594 277.484375 401.183594 L 277.484375 402.070312 L 277.015625 402.828125 C 276.675781 402.613281 276.527344 402.207031 276.632812 401.832031 C 276.738281 401.457031 277.09375 401.183594 277.484375 401.183594 M 277.484375 402.960938 L 277.484375 402.070312 L 277.957031 401.316406 C 278.292969 401.53125 278.445312 401.9375 278.339844 402.3125 C 278.230469 402.683594 277.875 402.953125 277.484375 402.953125 C 243.695312 402.953125 216.304688 430.34375 216.304688 464.132812 C 216.304688 497.921875 243.695312 525.316406 277.484375 525.316406 L 277.484375 526.203125 L 277.484375 525.316406 C 311.273438 525.324219 338.667969 497.933594 338.667969 464.140625 L 339.554688 464.140625 L 338.667969 464.140625 C 338.667969 430.351562 311.273438 402.960938 277.484375 402.960938 Z M 277.484375 402.960938 " clip-rule="nonzero"/></clipPath><clipPath id="2a7cb5b550"><path d="M 239.15625 430 L 315.621094 430 L 315.621094 498 L 239.15625 498 Z M 239.15625 430 " clip-rule="nonzero"/></clipPath></defs><g clip-path="url(#0a1a97aa9f)"><path fill="#ffffff" d="M 0 0 L 555.5 0 L 555.5 555.5 L 0 555.5 Z M 0 0 " fill-opacity="1" fill-rule="nonzero"/></g><g clip-path="url(#69f1f702f2)"><g clip-path="url(#998e1d2cbb)"><path fill="#f1f0ff" d="M 177.199219 178.65625 L 374.976562 178.65625 L 374.976562 376.433594 L 177.199219 376.433594 Z M 177.199219 178.65625 " fill-opacity="1" fill-rule="nonzero"/></g></g><g clip-path="url(#b144adc07c)"><g clip-path="url(#3c2c644871)"><path fill="#81eeeb" d="M 177.199219 178.65625 L 374.976562 178.65625 L 374.976562 376.433594 L 177.199219 376.433594 Z M 177.199219 178.65625 " fill-opacity="1" fill-rule="nonzero"/></g></g><g clip-path="url(#3a7ea4ce13)"><g clip-path="url(#52731fa533)"><g mask="url(#595e92bf82)"><g transform="matrix(1, 0, 0, 1, 129, 130)"><g clip-path="url(#0bcd98d6ae)"><g clip-path="url(#c05b158be9)"><g clip-path="url(#252ab0d427)"><rect x="-251.265" width="800.28" fill="#a1c3ff" height="800.280008" y="-252.265001" fill-opacity="1"/></g></g></g></g></g></g></g><g clip-path="url(#b565830e47)"><g clip-path="url(#8ff6c703af)"><path fill="#81eeeb" d="M 128.511719 129.949219 L 423.730469 129.949219 L 423.730469 425.167969 L 128.511719 425.167969 Z M 128.511719 129.949219 " fill-opacity="1" fill-rule="nonzero"/></g></g><g clip-path="url(#17f52af17a)"><g clip-path="url(#6d12571473)"><g mask="url(#6e1cc54bca)"><g transform="matrix(1, 0, 0, 1, 338, 309)"><g clip-path="url(#a908b7578c)"><g clip-path="url(#0f7213e69c)"><g clip-path="url(#bb4e8d93a6)"><rect x="-460.265" width="800.28" fill="#a1c3ff" height="800.280008" y="-431.265001" fill-opacity="1"/></g></g></g></g></g></g></g><g clip-path="url(#b306816521)"><g clip-path="url(#a7284a55f9)"><path fill="#81eeeb" d="M 337.304688 308.425781 L 518.460938 308.425781 L 518.460938 489.582031 L 337.304688 489.582031 Z M 337.304688 308.425781 " fill-opacity="1" fill-rule="nonzero"/></g></g><g fill="#f1f0ff" fill-opacity="1"><g transform="translate(378.232554, 408.130943)"><g><path d="M 2.171875 -18.3125 L 10.484375 -18.3125 C 12.472656 -18.3125 14.226562 -17.929688 15.75 -17.171875 C 17.28125 -16.410156 18.46875 -15.34375 19.3125 -13.96875 C 20.15625 -12.59375 20.578125 -10.988281 20.578125 -9.15625 C 20.578125 -7.320312 20.15625 -5.71875 19.3125 -4.34375 C 18.46875 -2.96875 17.28125 -1.898438 15.75 -1.140625 C 14.226562 -0.378906 12.472656 0 10.484375 0 L 2.171875 0 Z M 10.28125 -3.484375 C 12.113281 -3.484375 13.570312 -3.988281 14.65625 -5 C 15.75 -6.019531 16.296875 -7.40625 16.296875 -9.15625 C 16.296875 -10.894531 15.75 -12.273438 14.65625 -13.296875 C 13.570312 -14.316406 12.113281 -14.828125 10.28125 -14.828125 L 6.40625 -14.828125 L 6.40625 -3.484375 Z M 10.28125 -3.484375 "/></g></g></g><g fill="#f1f0ff" fill-opacity="1"><g transform="translate(399.837588, 408.130943)"><g><path d="M 0.84375 5.28125 C -0.59375 5.28125 -1.6875 5.019531 -2.4375 4.5 L -1.328125 1.546875 C -0.859375 1.878906 -0.285156 2.046875 0.390625 2.046875 C 0.910156 2.046875 1.316406 1.875 1.609375 1.53125 C 1.910156 1.1875 2.0625 0.675781 2.0625 0 L 2.0625 -14.078125 L 6.140625 -14.078125 L 6.140625 -0.03125 C 6.140625 1.613281 5.671875 2.910156 4.734375 3.859375 C 3.804688 4.804688 2.507812 5.28125 0.84375 5.28125 Z M 4.109375 -16.03125 C 3.359375 -16.03125 2.742188 -16.25 2.265625 -16.6875 C 1.796875 -17.125 1.5625 -17.664062 1.5625 -18.3125 C 1.5625 -18.957031 1.796875 -19.492188 2.265625 -19.921875 C 2.742188 -20.359375 3.359375 -20.578125 4.109375 -20.578125 C 4.859375 -20.578125 5.46875 -20.367188 5.9375 -19.953125 C 6.40625 -19.535156 6.640625 -19.015625 6.640625 -18.390625 C 6.640625 -17.710938 6.40625 -17.148438 5.9375 -16.703125 C 5.46875 -16.253906 4.859375 -16.03125 4.109375 -16.03125 Z M 4.109375 -16.03125 "/></g></g></g><g fill="#f1f0ff" fill-opacity="1"><g transform="translate(407.867545, 408.130943)"><g><path d="M 7.5625 -14.28125 C 9.738281 -14.28125 11.410156 -13.757812 12.578125 -12.71875 C 13.742188 -11.6875 14.328125 -10.125 14.328125 -8.03125 L 14.328125 0 L 10.515625 0 L 10.515625 -1.75 C 9.742188 -0.445312 8.3125 0.203125 6.21875 0.203125 C 5.144531 0.203125 4.207031 0.0195312 3.40625 -0.34375 C 2.613281 -0.707031 2.007812 -1.210938 1.59375 -1.859375 C 1.175781 -2.503906 0.96875 -3.234375 0.96875 -4.046875 C 0.96875 -5.359375 1.457031 -6.390625 2.4375 -7.140625 C 3.425781 -7.890625 4.953125 -8.265625 7.015625 -8.265625 L 10.25 -8.265625 C 10.25 -9.148438 9.976562 -9.832031 9.4375 -10.3125 C 8.894531 -10.789062 8.085938 -11.03125 7.015625 -11.03125 C 6.265625 -11.03125 5.523438 -10.910156 4.796875 -10.671875 C 4.078125 -10.441406 3.460938 -10.128906 2.953125 -9.734375 L 1.484375 -12.578125 C 2.253906 -13.117188 3.175781 -13.535156 4.25 -13.828125 C 5.320312 -14.128906 6.425781 -14.28125 7.5625 -14.28125 Z M 7.25 -2.53125 C 7.945312 -2.53125 8.5625 -2.691406 9.09375 -3.015625 C 9.632812 -3.335938 10.019531 -3.816406 10.25 -4.453125 L 10.25 -5.890625 L 7.453125 -5.890625 C 5.773438 -5.890625 4.9375 -5.335938 4.9375 -4.234375 C 4.9375 -3.710938 5.140625 -3.296875 5.546875 -2.984375 C 5.960938 -2.679688 6.53125 -2.53125 7.25 -2.53125 Z M 7.25 -2.53125 "/></g></g></g><g fill="#f1f0ff" fill-opacity="1"><g transform="translate(424.00593, 408.130943)"><g><path d="M 10.4375 -14.28125 C 12.175781 -14.28125 13.582031 -13.753906 14.65625 -12.703125 C 15.726562 -11.660156 16.265625 -10.113281 16.265625 -8.0625 L 16.265625 0 L 12.1875 0 L 12.1875 -7.421875 C 12.1875 -8.546875 11.941406 -9.378906 11.453125 -9.921875 C 10.960938 -10.472656 10.257812 -10.75 9.34375 -10.75 C 8.3125 -10.75 7.488281 -10.429688 6.875 -9.796875 C 6.269531 -9.160156 5.96875 -8.210938 5.96875 -6.953125 L 5.96875 0 L 1.890625 0 L 1.890625 -14.078125 L 5.78125 -14.078125 L 5.78125 -12.421875 C 6.320312 -13.015625 6.992188 -13.472656 7.796875 -13.796875 C 8.597656 -14.117188 9.476562 -14.28125 10.4375 -14.28125 Z M 10.4375 -14.28125 "/></g></g></g><g fill="#f1f0ff" fill-opacity="1"><g transform="translate(442.079876, 408.130943)"><g><path d="M 16.40625 -14.078125 L 16.40625 -2.359375 C 16.40625 0.222656 15.734375 2.140625 14.390625 3.390625 C 13.046875 4.648438 11.082031 5.28125 8.5 5.28125 C 7.132812 5.28125 5.84375 5.113281 4.625 4.78125 C 3.40625 4.457031 2.394531 3.976562 1.59375 3.34375 L 3.21875 0.421875 C 3.8125 0.910156 4.5625 1.296875 5.46875 1.578125 C 6.375 1.867188 7.28125 2.015625 8.1875 2.015625 C 9.601562 2.015625 10.644531 1.695312 11.3125 1.0625 C 11.976562 0.425781 12.3125 -0.535156 12.3125 -1.828125 L 12.3125 -2.4375 C 11.25 -1.269531 9.769531 -0.6875 7.875 -0.6875 C 6.582031 -0.6875 5.398438 -0.96875 4.328125 -1.53125 C 3.253906 -2.09375 2.40625 -2.890625 1.78125 -3.921875 C 1.15625 -4.953125 0.84375 -6.140625 0.84375 -7.484375 C 0.84375 -8.828125 1.15625 -10.007812 1.78125 -11.03125 C 2.40625 -12.0625 3.253906 -12.859375 4.328125 -13.421875 C 5.398438 -13.992188 6.582031 -14.28125 7.875 -14.28125 C 9.914062 -14.28125 11.46875 -13.609375 12.53125 -12.265625 L 12.53125 -14.078125 Z M 8.6875 -4.03125 C 9.769531 -4.03125 10.65625 -4.347656 11.34375 -4.984375 C 12.03125 -5.617188 12.375 -6.453125 12.375 -7.484375 C 12.375 -8.515625 12.03125 -9.347656 11.34375 -9.984375 C 10.65625 -10.617188 9.769531 -10.9375 8.6875 -10.9375 C 7.601562 -10.9375 6.710938 -10.617188 6.015625 -9.984375 C 5.316406 -9.347656 4.96875 -8.515625 4.96875 -7.484375 C 4.96875 -6.453125 5.316406 -5.617188 6.015625 -4.984375 C 6.710938 -4.347656 7.601562 -4.03125 8.6875 -4.03125 Z M 8.6875 -4.03125 "/></g></g></g><g fill="#f1f0ff" fill-opacity="1"><g transform="translate(460.389235, 408.130943)"><g><path d="M 8.578125 0.203125 C 7.097656 0.203125 5.769531 -0.101562 4.59375 -0.71875 C 3.414062 -1.332031 2.492188 -2.1875 1.828125 -3.28125 C 1.171875 -4.382812 0.84375 -5.632812 0.84375 -7.03125 C 0.84375 -8.425781 1.171875 -9.671875 1.828125 -10.765625 C 2.492188 -11.867188 3.414062 -12.726562 4.59375 -13.34375 C 5.769531 -13.96875 7.097656 -14.28125 8.578125 -14.28125 C 10.054688 -14.28125 11.378906 -13.96875 12.546875 -13.34375 C 13.722656 -12.726562 14.640625 -11.867188 15.296875 -10.765625 C 15.960938 -9.671875 16.296875 -8.425781 16.296875 -7.03125 C 16.296875 -5.632812 15.960938 -4.382812 15.296875 -3.28125 C 14.640625 -2.1875 13.722656 -1.332031 12.546875 -0.71875 C 11.378906 -0.101562 10.054688 0.203125 8.578125 0.203125 Z M 8.578125 -3.140625 C 9.628906 -3.140625 10.488281 -3.488281 11.15625 -4.1875 C 11.820312 -4.894531 12.15625 -5.84375 12.15625 -7.03125 C 12.15625 -8.21875 11.820312 -9.164062 11.15625 -9.875 C 10.488281 -10.582031 9.628906 -10.9375 8.578125 -10.9375 C 7.535156 -10.9375 6.671875 -10.582031 5.984375 -9.875 C 5.304688 -9.164062 4.96875 -8.21875 4.96875 -7.03125 C 4.96875 -5.84375 5.304688 -4.894531 5.984375 -4.1875 C 6.671875 -3.488281 7.535156 -3.140625 8.578125 -3.140625 Z M 8.578125 -3.140625 "/></g></g></g><g clip-path="url(#9a5021b196)"><g clip-path="url(#48292160e4)"><g mask="url(#fcb7ed7a8d)"><g transform="matrix(1, 0, 0, 1, 36, 70)"><g clip-path="url(#2d851cc9c4)"><g clip-path="url(#97bbe28322)"><g clip-path="url(#063ebde819)"><rect x="-158.265" width="800.28" fill="#a1c3ff" height="800.280008" y="-192.265001" fill-opacity="1"/></g></g></g></g></g></g></g><g clip-path="url(#1b53572c5e)"><g clip-path="url(#f5ca3742bd)"><path fill="#81eeeb" d="M 35.675781 69.921875 L 216.832031 69.921875 L 216.832031 251.078125 L 35.675781 251.078125 Z M 35.675781 69.921875 " fill-opacity="1" fill-rule="nonzero"/></g></g><g fill="#f1f0ff" fill-opacity="1"><g transform="translate(56.245442, 169.627791)"><g><path d="M 5.546875 0.3125 C 4.304688 0.3125 3.164062 0.0820312 2.125 -0.375 C 1.09375 -0.84375 0.242188 -1.503906 -0.421875 -2.359375 L 1.9375 -5.171875 C 2.925781 -3.835938 4.054688 -3.171875 5.328125 -3.171875 C 7.054688 -3.171875 7.921875 -4.179688 7.921875 -6.203125 L 7.921875 -14.90625 L 1.484375 -14.90625 L 1.484375 -18.3125 L 12.140625 -18.3125 L 12.140625 -6.4375 C 12.140625 -4.1875 11.578125 -2.5 10.453125 -1.375 C 9.335938 -0.25 7.703125 0.3125 5.546875 0.3125 Z M 5.546875 0.3125 "/></g></g></g><g fill="#f1f0ff" fill-opacity="1"><g transform="translate(70.395955, 169.627791)"><g><path d="M 7.5625 -14.28125 C 9.738281 -14.28125 11.410156 -13.757812 12.578125 -12.71875 C 13.742188 -11.6875 14.328125 -10.125 14.328125 -8.03125 L 14.328125 0 L 10.515625 0 L 10.515625 -1.75 C 9.742188 -0.445312 8.3125 0.203125 6.21875 0.203125 C 5.144531 0.203125 4.207031 0.0195312 3.40625 -0.34375 C 2.613281 -0.707031 2.007812 -1.210938 1.59375 -1.859375 C 1.175781 -2.503906 0.96875 -3.234375 0.96875 -4.046875 C 0.96875 -5.359375 1.457031 -6.390625 2.4375 -7.140625 C 3.425781 -7.890625 4.953125 -8.265625 7.015625 -8.265625 L 10.25 -8.265625 C 10.25 -9.148438 9.976562 -9.832031 9.4375 -10.3125 C 8.894531 -10.789062 8.085938 -11.03125 7.015625 -11.03125 C 6.265625 -11.03125 5.523438 -10.910156 4.796875 -10.671875 C 4.078125 -10.441406 3.460938 -10.128906 2.953125 -9.734375 L 1.484375 -12.578125 C 2.253906 -13.117188 3.175781 -13.535156 4.25 -13.828125 C 5.320312 -14.128906 6.425781 -14.28125 7.5625 -14.28125 Z M 7.25 -2.53125 C 7.945312 -2.53125 8.5625 -2.691406 9.09375 -3.015625 C 9.632812 -3.335938 10.019531 -3.816406 10.25 -4.453125 L 10.25 -5.890625 L 7.453125 -5.890625 C 5.773438 -5.890625 4.9375 -5.335938 4.9375 -4.234375 C 4.9375 -3.710938 5.140625 -3.296875 5.546875 -2.984375 C 5.960938 -2.679688 6.53125 -2.53125 7.25 -2.53125 Z M 7.25 -2.53125 "/></g></g></g><g fill="#f1f0ff" fill-opacity="1"><g transform="translate(86.53434, 169.627791)"><g><path d="M 15.84375 -14.078125 L 9.90625 0 L 5.703125 0 L -0.203125 -14.078125 L 4 -14.078125 L 7.90625 -4.5 L 11.921875 -14.078125 Z M 15.84375 -14.078125 "/></g></g></g><g fill="#f1f0ff" fill-opacity="1"><g transform="translate(102.17576, 169.627791)"><g><path d="M 7.5625 -14.28125 C 9.738281 -14.28125 11.410156 -13.757812 12.578125 -12.71875 C 13.742188 -11.6875 14.328125 -10.125 14.328125 -8.03125 L 14.328125 0 L 10.515625 0 L 10.515625 -1.75 C 9.742188 -0.445312 8.3125 0.203125 6.21875 0.203125 C 5.144531 0.203125 4.207031 0.0195312 3.40625 -0.34375 C 2.613281 -0.707031 2.007812 -1.210938 1.59375 -1.859375 C 1.175781 -2.503906 0.96875 -3.234375 0.96875 -4.046875 C 0.96875 -5.359375 1.457031 -6.390625 2.4375 -7.140625 C 3.425781 -7.890625 4.953125 -8.265625 7.015625 -8.265625 L 10.25 -8.265625 C 10.25 -9.148438 9.976562 -9.832031 9.4375 -10.3125 C 8.894531 -10.789062 8.085938 -11.03125 7.015625 -11.03125 C 6.265625 -11.03125 5.523438 -10.910156 4.796875 -10.671875 C 4.078125 -10.441406 3.460938 -10.128906 2.953125 -9.734375 L 1.484375 -12.578125 C 2.253906 -13.117188 3.175781 -13.535156 4.25 -13.828125 C 5.320312 -14.128906 6.425781 -14.28125 7.5625 -14.28125 Z M 7.25 -2.53125 C 7.945312 -2.53125 8.5625 -2.691406 9.09375 -3.015625 C 9.632812 -3.335938 10.019531 -3.816406 10.25 -4.453125 L 10.25 -5.890625 L 7.453125 -5.890625 C 5.773438 -5.890625 4.9375 -5.335938 4.9375 -4.234375 C 4.9375 -3.710938 5.140625 -3.296875 5.546875 -2.984375 C 5.960938 -2.679688 6.53125 -2.53125 7.25 -2.53125 Z M 7.25 -2.53125 "/></g></g></g><g fill="#f1f0ff" fill-opacity="1"><g transform="translate(118.314145, 169.627791)"><g><path d="M 6.625 0.203125 C 5.445312 0.203125 4.300781 0.0625 3.1875 -0.21875 C 2.070312 -0.507812 1.179688 -0.875 0.515625 -1.3125 L 1.890625 -4.234375 C 2.515625 -3.835938 3.269531 -3.507812 4.15625 -3.25 C 5.050781 -3 5.925781 -2.875 6.78125 -2.875 C 8.5 -2.875 9.359375 -3.300781 9.359375 -4.15625 C 9.359375 -4.5625 9.125 -4.847656 8.65625 -5.015625 C 8.1875 -5.191406 7.460938 -5.34375 6.484375 -5.46875 C 5.335938 -5.644531 4.390625 -5.84375 3.640625 -6.0625 C 2.890625 -6.289062 2.238281 -6.691406 1.6875 -7.265625 C 1.132812 -7.847656 0.859375 -8.671875 0.859375 -9.734375 C 0.859375 -10.617188 1.113281 -11.40625 1.625 -12.09375 C 2.144531 -12.78125 2.894531 -13.316406 3.875 -13.703125 C 4.863281 -14.085938 6.03125 -14.28125 7.375 -14.28125 C 8.363281 -14.28125 9.351562 -14.171875 10.34375 -13.953125 C 11.332031 -13.734375 12.148438 -13.429688 12.796875 -13.046875 L 11.4375 -10.15625 C 10.195312 -10.84375 8.84375 -11.1875 7.375 -11.1875 C 6.5 -11.1875 5.84375 -11.066406 5.40625 -10.828125 C 4.976562 -10.585938 4.765625 -10.273438 4.765625 -9.890625 C 4.765625 -9.453125 5 -9.144531 5.46875 -8.96875 C 5.9375 -8.789062 6.6875 -8.625 7.71875 -8.46875 C 8.863281 -8.28125 9.800781 -8.078125 10.53125 -7.859375 C 11.269531 -7.640625 11.910156 -7.242188 12.453125 -6.671875 C 12.992188 -6.097656 13.265625 -5.296875 13.265625 -4.265625 C 13.265625 -3.390625 13 -2.613281 12.46875 -1.9375 C 11.945312 -1.257812 11.1875 -0.734375 10.1875 -0.359375 C 9.1875 0.015625 8 0.203125 6.625 0.203125 Z M 6.625 0.203125 "/></g></g></g><g fill="#f1f0ff" fill-opacity="1"><g transform="translate(132.203095, 169.627791)"><g><path d="M 8.6875 0.203125 C 7.1875 0.203125 5.835938 -0.101562 4.640625 -0.71875 C 3.441406 -1.332031 2.507812 -2.1875 1.84375 -3.28125 C 1.175781 -4.382812 0.84375 -5.632812 0.84375 -7.03125 C 0.84375 -8.425781 1.175781 -9.671875 1.84375 -10.765625 C 2.507812 -11.867188 3.441406 -12.726562 4.640625 -13.34375 C 5.835938 -13.96875 7.1875 -14.28125 8.6875 -14.28125 C 10.164062 -14.28125 11.457031 -13.96875 12.5625 -13.34375 C 13.675781 -12.726562 14.484375 -11.847656 14.984375 -10.703125 L 11.828125 -9 C 11.085938 -10.289062 10.03125 -10.9375 8.65625 -10.9375 C 7.59375 -10.9375 6.710938 -10.585938 6.015625 -9.890625 C 5.316406 -9.191406 4.96875 -8.238281 4.96875 -7.03125 C 4.96875 -5.832031 5.316406 -4.882812 6.015625 -4.1875 C 6.710938 -3.488281 7.59375 -3.140625 8.65625 -3.140625 C 10.050781 -3.140625 11.109375 -3.785156 11.828125 -5.078125 L 14.984375 -3.34375 C 14.484375 -2.226562 13.675781 -1.359375 12.5625 -0.734375 C 11.457031 -0.109375 10.164062 0.203125 8.6875 0.203125 Z M 8.6875 0.203125 "/></g></g></g><g fill="#f1f0ff" fill-opacity="1"><g transform="translate(147.661424, 169.627791)"><g><path d="M 5.78125 -12.21875 C 6.269531 -12.894531 6.925781 -13.40625 7.75 -13.75 C 8.582031 -14.101562 9.539062 -14.28125 10.625 -14.28125 L 10.625 -10.515625 C 10.164062 -10.546875 9.859375 -10.5625 9.703125 -10.5625 C 8.535156 -10.5625 7.617188 -10.234375 6.953125 -9.578125 C 6.296875 -8.929688 5.96875 -7.953125 5.96875 -6.640625 L 5.96875 0 L 1.890625 0 L 1.890625 -14.078125 L 5.78125 -14.078125 Z M 5.78125 -12.21875 "/></g></g></g><g fill="#f1f0ff" fill-opacity="1"><g transform="translate(158.934756, 169.627791)"><g><path d="M 1.890625 -14.078125 L 5.96875 -14.078125 L 5.96875 0 L 1.890625 0 Z M 3.921875 -16.03125 C 3.171875 -16.03125 2.554688 -16.25 2.078125 -16.6875 C 1.609375 -17.125 1.375 -17.664062 1.375 -18.3125 C 1.375 -18.957031 1.609375 -19.492188 2.078125 -19.921875 C 2.554688 -20.359375 3.171875 -20.578125 3.921875 -20.578125 C 4.671875 -20.578125 5.28125 -20.367188 5.75 -19.953125 C 6.21875 -19.535156 6.453125 -19.015625 6.453125 -18.390625 C 6.453125 -17.710938 6.21875 -17.148438 5.75 -16.703125 C 5.28125 -16.253906 4.671875 -16.03125 3.921875 -16.03125 Z M 3.921875 -16.03125 "/></g></g></g><g fill="#f1f0ff" fill-opacity="1"><g transform="translate(166.807782, 169.627791)"><g><path d="M 10.203125 -14.28125 C 11.503906 -14.28125 12.691406 -13.976562 13.765625 -13.375 C 14.835938 -12.769531 15.675781 -11.921875 16.28125 -10.828125 C 16.894531 -9.742188 17.203125 -8.476562 17.203125 -7.03125 C 17.203125 -5.582031 16.894531 -4.3125 16.28125 -3.21875 C 15.675781 -2.132812 14.835938 -1.289062 13.765625 -0.6875 C 12.691406 -0.09375 11.503906 0.203125 10.203125 0.203125 C 8.398438 0.203125 6.988281 -0.359375 5.96875 -1.484375 L 5.96875 5.078125 L 1.890625 5.078125 L 1.890625 -14.078125 L 5.78125 -14.078125 L 5.78125 -12.453125 C 6.789062 -13.671875 8.265625 -14.28125 10.203125 -14.28125 Z M 9.5 -3.140625 C 10.539062 -3.140625 11.394531 -3.488281 12.0625 -4.1875 C 12.738281 -4.894531 13.078125 -5.84375 13.078125 -7.03125 C 13.078125 -8.21875 12.738281 -9.164062 12.0625 -9.875 C 11.394531 -10.582031 10.539062 -10.9375 9.5 -10.9375 C 8.445312 -10.9375 7.582031 -10.582031 6.90625 -9.875 C 6.238281 -9.164062 5.90625 -8.21875 5.90625 -7.03125 C 5.90625 -5.84375 6.238281 -4.894531 6.90625 -4.1875 C 7.582031 -3.488281 8.445312 -3.140625 9.5 -3.140625 Z M 9.5 -3.140625 "/></g></g></g><g fill="#f1f0ff" fill-opacity="1"><g transform="translate(184.855578, 169.627791)"><g><path d="M 10.953125 -0.6875 C 10.554688 -0.382812 10.066406 -0.160156 9.484375 -0.015625 C 8.898438 0.128906 8.285156 0.203125 7.640625 0.203125 C 5.960938 0.203125 4.664062 -0.222656 3.75 -1.078125 C 2.832031 -1.929688 2.375 -3.1875 2.375 -4.84375 L 2.375 -10.625 L 0.203125 -10.625 L 0.203125 -13.765625 L 2.375 -13.765625 L 2.375 -17.1875 L 6.453125 -17.1875 L 6.453125 -13.765625 L 9.96875 -13.765625 L 9.96875 -10.625 L 6.453125 -10.625 L 6.453125 -4.890625 C 6.453125 -4.296875 6.601562 -3.835938 6.90625 -3.515625 C 7.21875 -3.191406 7.65625 -3.03125 8.21875 -3.03125 C 8.863281 -3.03125 9.410156 -3.207031 9.859375 -3.5625 Z M 10.953125 -0.6875 "/></g></g></g><g clip-path="url(#843fe6bf00)"><g clip-path="url(#a7db3e7a09)"><g mask="url(#1513ce5b13)"><g transform="matrix(1, 0, 0, 1, 36, 307)"><g clip-path="url(#97a1a0a575)"><g clip-path="url(#142282c479)"><g clip-path="url(#4217084890)"><rect x="-158.265" width="800.28" fill="#a1c3ff" height="800.280008" y="-429.265001" fill-opacity="1"/></g></g></g></g></g></g></g><g clip-path="url(#6a3325160b)"><g clip-path="url(#47a458b714)"><path fill="#81eeeb" d="M 35.679688 306.429688 L 216.835938 306.429688 L 216.835938 487.585938 L 35.679688 487.585938 Z M 35.679688 306.429688 " fill-opacity="1" fill-rule="nonzero"/></g></g><g fill="#f1f0ff" fill-opacity="1"><g transform="translate(72.238278, 406.133793)"><g><path d="M 13.84375 0 L 10.3125 -5.09375 L 6.40625 -5.09375 L 6.40625 0 L 2.171875 0 L 2.171875 -18.3125 L 10.09375 -18.3125 C 11.71875 -18.3125 13.125 -18.039062 14.3125 -17.5 C 15.507812 -16.957031 16.429688 -16.1875 17.078125 -15.1875 C 17.722656 -14.195312 18.046875 -13.023438 18.046875 -11.671875 C 18.046875 -10.304688 17.71875 -9.128906 17.0625 -8.140625 C 16.414062 -7.160156 15.488281 -6.410156 14.28125 -5.890625 L 18.390625 0 Z M 13.765625 -11.671875 C 13.765625 -12.691406 13.429688 -13.476562 12.765625 -14.03125 C 12.097656 -14.582031 11.128906 -14.859375 9.859375 -14.859375 L 6.40625 -14.859375 L 6.40625 -8.46875 L 9.859375 -8.46875 C 11.128906 -8.46875 12.097656 -8.75 12.765625 -9.3125 C 13.429688 -9.875 13.765625 -10.660156 13.765625 -11.671875 Z M 13.765625 -11.671875 "/></g></g></g><g fill="#f1f0ff" fill-opacity="1"><g transform="translate(91.463096, 406.133793)"><g><path d="M 15.671875 -6.984375 C 15.671875 -6.929688 15.644531 -6.566406 15.59375 -5.890625 L 4.9375 -5.890625 C 5.132812 -5.015625 5.585938 -4.320312 6.296875 -3.8125 C 7.015625 -3.3125 7.90625 -3.0625 8.96875 -3.0625 C 9.695312 -3.0625 10.34375 -3.171875 10.90625 -3.390625 C 11.476562 -3.609375 12.007812 -3.953125 12.5 -4.421875 L 14.671875 -2.0625 C 13.347656 -0.550781 11.410156 0.203125 8.859375 0.203125 C 7.273438 0.203125 5.875 -0.101562 4.65625 -0.71875 C 3.4375 -1.332031 2.492188 -2.1875 1.828125 -3.28125 C 1.171875 -4.382812 0.84375 -5.632812 0.84375 -7.03125 C 0.84375 -8.414062 1.164062 -9.660156 1.8125 -10.765625 C 2.46875 -11.867188 3.363281 -12.726562 4.5 -13.34375 C 5.644531 -13.96875 6.925781 -14.28125 8.34375 -14.28125 C 9.71875 -14.28125 10.960938 -13.984375 12.078125 -13.390625 C 13.203125 -12.796875 14.082031 -11.945312 14.71875 -10.84375 C 15.351562 -9.738281 15.671875 -8.453125 15.671875 -6.984375 Z M 8.375 -11.1875 C 7.445312 -11.1875 6.664062 -10.925781 6.03125 -10.40625 C 5.40625 -9.882812 5.023438 -9.171875 4.890625 -8.265625 L 11.828125 -8.265625 C 11.679688 -9.148438 11.296875 -9.859375 10.671875 -10.390625 C 10.046875 -10.921875 9.28125 -11.1875 8.375 -11.1875 Z M 8.375 -11.1875 "/></g></g></g><g fill="#f1f0ff" fill-opacity="1"><g transform="translate(107.967675, 406.133793)"><g><path d="M 7.5625 -14.28125 C 9.738281 -14.28125 11.410156 -13.757812 12.578125 -12.71875 C 13.742188 -11.6875 14.328125 -10.125 14.328125 -8.03125 L 14.328125 0 L 10.515625 0 L 10.515625 -1.75 C 9.742188 -0.445312 8.3125 0.203125 6.21875 0.203125 C 5.144531 0.203125 4.207031 0.0195312 3.40625 -0.34375 C 2.613281 -0.707031 2.007812 -1.210938 1.59375 -1.859375 C 1.175781 -2.503906 0.96875 -3.234375 0.96875 -4.046875 C 0.96875 -5.359375 1.457031 -6.390625 2.4375 -7.140625 C 3.425781 -7.890625 4.953125 -8.265625 7.015625 -8.265625 L 10.25 -8.265625 C 10.25 -9.148438 9.976562 -9.832031 9.4375 -10.3125 C 8.894531 -10.789062 8.085938 -11.03125 7.015625 -11.03125 C 6.265625 -11.03125 5.523438 -10.910156 4.796875 -10.671875 C 4.078125 -10.441406 3.460938 -10.128906 2.953125 -9.734375 L 1.484375 -12.578125 C 2.253906 -13.117188 3.175781 -13.535156 4.25 -13.828125 C 5.320312 -14.128906 6.425781 -14.28125 7.5625 -14.28125 Z M 7.25 -2.53125 C 7.945312 -2.53125 8.5625 -2.691406 9.09375 -3.015625 C 9.632812 -3.335938 10.019531 -3.816406 10.25 -4.453125 L 10.25 -5.890625 L 7.453125 -5.890625 C 5.773438 -5.890625 4.9375 -5.335938 4.9375 -4.234375 C 4.9375 -3.710938 5.140625 -3.296875 5.546875 -2.984375 C 5.960938 -2.679688 6.53125 -2.53125 7.25 -2.53125 Z M 7.25 -2.53125 "/></g></g></g><g fill="#f1f0ff" fill-opacity="1"><g transform="translate(124.10606, 406.133793)"><g><path d="M 8.6875 0.203125 C 7.1875 0.203125 5.835938 -0.101562 4.640625 -0.71875 C 3.441406 -1.332031 2.507812 -2.1875 1.84375 -3.28125 C 1.175781 -4.382812 0.84375 -5.632812 0.84375 -7.03125 C 0.84375 -8.425781 1.175781 -9.671875 1.84375 -10.765625 C 2.507812 -11.867188 3.441406 -12.726562 4.640625 -13.34375 C 5.835938 -13.96875 7.1875 -14.28125 8.6875 -14.28125 C 10.164062 -14.28125 11.457031 -13.96875 12.5625 -13.34375 C 13.675781 -12.726562 14.484375 -11.847656 14.984375 -10.703125 L 11.828125 -9 C 11.085938 -10.289062 10.03125 -10.9375 8.65625 -10.9375 C 7.59375 -10.9375 6.710938 -10.585938 6.015625 -9.890625 C 5.316406 -9.191406 4.96875 -8.238281 4.96875 -7.03125 C 4.96875 -5.832031 5.316406 -4.882812 6.015625 -4.1875 C 6.710938 -3.488281 7.59375 -3.140625 8.65625 -3.140625 C 10.050781 -3.140625 11.109375 -3.785156 11.828125 -5.078125 L 14.984375 -3.34375 C 14.484375 -2.226562 13.675781 -1.359375 12.5625 -0.734375 C 11.457031 -0.109375 10.164062 0.203125 8.6875 0.203125 Z M 8.6875 0.203125 "/></g></g></g><g fill="#f1f0ff" fill-opacity="1"><g transform="translate(139.564388, 406.133793)"><g><path d="M 10.953125 -0.6875 C 10.554688 -0.382812 10.066406 -0.160156 9.484375 -0.015625 C 8.898438 0.128906 8.285156 0.203125 7.640625 0.203125 C 5.960938 0.203125 4.664062 -0.222656 3.75 -1.078125 C 2.832031 -1.929688 2.375 -3.1875 2.375 -4.84375 L 2.375 -10.625 L 0.203125 -10.625 L 0.203125 -13.765625 L 2.375 -13.765625 L 2.375 -17.1875 L 6.453125 -17.1875 L 6.453125 -13.765625 L 9.96875 -13.765625 L 9.96875 -10.625 L 6.453125 -10.625 L 6.453125 -4.890625 C 6.453125 -4.296875 6.601562 -3.835938 6.90625 -3.515625 C 7.21875 -3.191406 7.65625 -3.03125 8.21875 -3.03125 C 8.863281 -3.03125 9.410156 -3.207031 9.859375 -3.5625 Z M 10.953125 -0.6875 "/></g></g></g><g fill="#f1f0ff" fill-opacity="1"><g transform="translate(150.942341, 406.133793)"><g/></g></g><g fill="#f1f0ff" fill-opacity="1"><g transform="translate(158.344552, 406.133793)"><g><path d="M 0.84375 5.28125 C -0.59375 5.28125 -1.6875 5.019531 -2.4375 4.5 L -1.328125 1.546875 C -0.859375 1.878906 -0.285156 2.046875 0.390625 2.046875 C 0.910156 2.046875 1.316406 1.875 1.609375 1.53125 C 1.910156 1.1875 2.0625 0.675781 2.0625 0 L 2.0625 -14.078125 L 6.140625 -14.078125 L 6.140625 -0.03125 C 6.140625 1.613281 5.671875 2.910156 4.734375 3.859375 C 3.804688 4.804688 2.507812 5.28125 0.84375 5.28125 Z M 4.109375 -16.03125 C 3.359375 -16.03125 2.742188 -16.25 2.265625 -16.6875 C 1.796875 -17.125 1.5625 -17.664062 1.5625 -18.3125 C 1.5625 -18.957031 1.796875 -19.492188 2.265625 -19.921875 C 2.742188 -20.359375 3.359375 -20.578125 4.109375 -20.578125 C 4.859375 -20.578125 5.46875 -20.367188 5.9375 -19.953125 C 6.40625 -19.535156 6.640625 -19.015625 6.640625 -18.390625 C 6.640625 -17.710938 6.40625 -17.148438 5.9375 -16.703125 C 5.46875 -16.253906 4.859375 -16.03125 4.109375 -16.03125 Z M 4.109375 -16.03125 "/></g></g></g><g fill="#f1f0ff" fill-opacity="1"><g transform="translate(166.374509, 406.133793)"><g><path d="M 6.625 0.203125 C 5.445312 0.203125 4.300781 0.0625 3.1875 -0.21875 C 2.070312 -0.507812 1.179688 -0.875 0.515625 -1.3125 L 1.890625 -4.234375 C 2.515625 -3.835938 3.269531 -3.507812 4.15625 -3.25 C 5.050781 -3 5.925781 -2.875 6.78125 -2.875 C 8.5 -2.875 9.359375 -3.300781 9.359375 -4.15625 C 9.359375 -4.5625 9.125 -4.847656 8.65625 -5.015625 C 8.1875 -5.191406 7.460938 -5.34375 6.484375 -5.46875 C 5.335938 -5.644531 4.390625 -5.84375 3.640625 -6.0625 C 2.890625 -6.289062 2.238281 -6.691406 1.6875 -7.265625 C 1.132812 -7.847656 0.859375 -8.671875 0.859375 -9.734375 C 0.859375 -10.617188 1.113281 -11.40625 1.625 -12.09375 C 2.144531 -12.78125 2.894531 -13.316406 3.875 -13.703125 C 4.863281 -14.085938 6.03125 -14.28125 7.375 -14.28125 C 8.363281 -14.28125 9.351562 -14.171875 10.34375 -13.953125 C 11.332031 -13.734375 12.148438 -13.429688 12.796875 -13.046875 L 11.4375 -10.15625 C 10.195312 -10.84375 8.84375 -11.1875 7.375 -11.1875 C 6.5 -11.1875 5.84375 -11.066406 5.40625 -10.828125 C 4.976562 -10.585938 4.765625 -10.273438 4.765625 -9.890625 C 4.765625 -9.453125 5 -9.144531 5.46875 -8.96875 C 5.9375 -8.789062 6.6875 -8.625 7.71875 -8.46875 C 8.863281 -8.28125 9.800781 -8.078125 10.53125 -7.859375 C 11.269531 -7.640625 11.910156 -7.242188 12.453125 -6.671875 C 12.992188 -6.097656 13.265625 -5.296875 13.265625 -4.265625 C 13.265625 -3.390625 13 -2.613281 12.46875 -1.9375 C 11.945312 -1.257812 11.1875 -0.734375 10.1875 -0.359375 C 9.1875 0.015625 8 0.203125 6.625 0.203125 Z M 6.625 0.203125 "/></g></g></g><g clip-path="url(#67b4b63a42)"><g clip-path="url(#368e9b5061)"><g mask="url(#dcb5f273f7)"><g transform="matrix(1, 0, 0, 1, 338, 68)"><g clip-path="url(#777429a707)"><g clip-path="url(#a2528d0dff)"><g clip-path="url(#0498ba7c64)"><rect x="-460.265" width="800.28" fill="#a1c3ff" height="800.280008" y="-190.265001" fill-opacity="1"/></g></g></g></g></g></g></g><g clip-path="url(#abd47749a5)"><g clip-path="url(#08999d7ed7)"><path fill="#81eeeb" d="M 337.308594 67.925781 L 518.464844 67.925781 L 518.464844 249.082031 L 337.308594 249.082031 Z M 337.308594 67.925781 " fill-opacity="1" fill-rule="nonzero"/></g></g><g fill="#f1f0ff" fill-opacity="1"><g transform="translate(378.154484, 167.630841)"><g><path d="M 10.09375 -18.3125 C 11.71875 -18.3125 13.125 -18.039062 14.3125 -17.5 C 15.507812 -16.957031 16.429688 -16.1875 17.078125 -15.1875 C 17.722656 -14.195312 18.046875 -13.023438 18.046875 -11.671875 C 18.046875 -10.328125 17.722656 -9.148438 17.078125 -8.140625 C 16.429688 -7.140625 15.507812 -6.375 14.3125 -5.84375 C 13.125 -5.3125 11.71875 -5.046875 10.09375 -5.046875 L 6.40625 -5.046875 L 6.40625 0 L 2.171875 0 L 2.171875 -18.3125 Z M 9.859375 -8.5 C 11.128906 -8.5 12.097656 -8.773438 12.765625 -9.328125 C 13.429688 -9.878906 13.765625 -10.660156 13.765625 -11.671875 C 13.765625 -12.691406 13.429688 -13.476562 12.765625 -14.03125 C 12.097656 -14.582031 11.128906 -14.859375 9.859375 -14.859375 L 6.40625 -14.859375 L 6.40625 -8.5 Z M 9.859375 -8.5 "/></g></g></g><g fill="#f1f0ff" fill-opacity="1"><g transform="translate(397.300843, 167.630841)"><g><path d="M 15.84375 -14.078125 L 9.5 0.859375 C 8.851562 2.484375 8.050781 3.625 7.09375 4.28125 C 6.144531 4.945312 5 5.28125 3.65625 5.28125 C 2.925781 5.28125 2.203125 5.164062 1.484375 4.9375 C 0.773438 4.71875 0.191406 4.40625 -0.265625 4 L 1.234375 1.09375 C 1.546875 1.375 1.90625 1.59375 2.3125 1.75 C 2.71875 1.90625 3.125 1.984375 3.53125 1.984375 C 4.09375 1.984375 4.546875 1.847656 4.890625 1.578125 C 5.242188 1.304688 5.554688 0.859375 5.828125 0.234375 L 5.890625 0.109375 L -0.203125 -14.078125 L 4 -14.078125 L 7.953125 -4.53125 L 11.921875 -14.078125 Z M 15.84375 -14.078125 "/></g></g></g><g fill="#f1f0ff" fill-opacity="1"><g transform="translate(412.942263, 167.630841)"><g><path d="M 10.953125 -0.6875 C 10.554688 -0.382812 10.066406 -0.160156 9.484375 -0.015625 C 8.898438 0.128906 8.285156 0.203125 7.640625 0.203125 C 5.960938 0.203125 4.664062 -0.222656 3.75 -1.078125 C 2.832031 -1.929688 2.375 -3.1875 2.375 -4.84375 L 2.375 -10.625 L 0.203125 -10.625 L 0.203125 -13.765625 L 2.375 -13.765625 L 2.375 -17.1875 L 6.453125 -17.1875 L 6.453125 -13.765625 L 9.96875 -13.765625 L 9.96875 -10.625 L 6.453125 -10.625 L 6.453125 -4.890625 C 6.453125 -4.296875 6.601562 -3.835938 6.90625 -3.515625 C 7.21875 -3.191406 7.65625 -3.03125 8.21875 -3.03125 C 8.863281 -3.03125 9.410156 -3.207031 9.859375 -3.5625 Z M 10.953125 -0.6875 "/></g></g></g><g fill="#f1f0ff" fill-opacity="1"><g transform="translate(424.320216, 167.630841)"><g><path d="M 10.4375 -14.28125 C 12.175781 -14.28125 13.582031 -13.753906 14.65625 -12.703125 C 15.726562 -11.660156 16.265625 -10.113281 16.265625 -8.0625 L 16.265625 0 L 12.1875 0 L 12.1875 -7.421875 C 12.1875 -8.546875 11.941406 -9.378906 11.453125 -9.921875 C 10.960938 -10.472656 10.257812 -10.75 9.34375 -10.75 C 8.3125 -10.75 7.488281 -10.429688 6.875 -9.796875 C 6.269531 -9.160156 5.96875 -8.210938 5.96875 -6.953125 L 5.96875 0 L 1.890625 0 L 1.890625 -19.40625 L 5.96875 -19.40625 L 5.96875 -12.609375 C 6.507812 -13.148438 7.160156 -13.5625 7.921875 -13.84375 C 8.691406 -14.132812 9.53125 -14.28125 10.4375 -14.28125 Z M 10.4375 -14.28125 "/></g></g></g><g fill="#f1f0ff" fill-opacity="1"><g transform="translate(442.394162, 167.630841)"><g><path d="M 8.578125 0.203125 C 7.097656 0.203125 5.769531 -0.101562 4.59375 -0.71875 C 3.414062 -1.332031 2.492188 -2.1875 1.828125 -3.28125 C 1.171875 -4.382812 0.84375 -5.632812 0.84375 -7.03125 C 0.84375 -8.425781 1.171875 -9.671875 1.828125 -10.765625 C 2.492188 -11.867188 3.414062 -12.726562 4.59375 -13.34375 C 5.769531 -13.96875 7.097656 -14.28125 8.578125 -14.28125 C 10.054688 -14.28125 11.378906 -13.96875 12.546875 -13.34375 C 13.722656 -12.726562 14.640625 -11.867188 15.296875 -10.765625 C 15.960938 -9.671875 16.296875 -8.425781 16.296875 -7.03125 C 16.296875 -5.632812 15.960938 -4.382812 15.296875 -3.28125 C 14.640625 -2.1875 13.722656 -1.332031 12.546875 -0.71875 C 11.378906 -0.101562 10.054688 0.203125 8.578125 0.203125 Z M 8.578125 -3.140625 C 9.628906 -3.140625 10.488281 -3.488281 11.15625 -4.1875 C 11.820312 -4.894531 12.15625 -5.84375 12.15625 -7.03125 C 12.15625 -8.21875 11.820312 -9.164062 11.15625 -9.875 C 10.488281 -10.582031 9.628906 -10.9375 8.578125 -10.9375 C 7.535156 -10.9375 6.671875 -10.582031 5.984375 -9.875 C 5.304688 -9.164062 4.96875 -8.21875 4.96875 -7.03125 C 4.96875 -5.84375 5.304688 -4.894531 5.984375 -4.1875 C 6.671875 -3.488281 7.535156 -3.140625 8.578125 -3.140625 Z M 8.578125 -3.140625 "/></g></g></g><g fill="#f1f0ff" fill-opacity="1"><g transform="translate(459.526488, 167.630841)"><g><path d="M 10.4375 -14.28125 C 12.175781 -14.28125 13.582031 -13.753906 14.65625 -12.703125 C 15.726562 -11.660156 16.265625 -10.113281 16.265625 -8.0625 L 16.265625 0 L 12.1875 0 L 12.1875 -7.421875 C 12.1875 -8.546875 11.941406 -9.378906 11.453125 -9.921875 C 10.960938 -10.472656 10.257812 -10.75 9.34375 -10.75 C 8.3125 -10.75 7.488281 -10.429688 6.875 -9.796875 C 6.269531 -9.160156 5.96875 -8.210938 5.96875 -6.953125 L 5.96875 0 L 1.890625 0 L 1.890625 -14.078125 L 5.78125 -14.078125 L 5.78125 -12.421875 C 6.320312 -13.015625 6.992188 -13.472656 7.796875 -13.796875 C 8.597656 -14.117188 9.476562 -14.28125 10.4375 -14.28125 Z M 10.4375 -14.28125 "/></g></g></g><g clip-path="url(#9cab1c6e90)"><g clip-path="url(#720f8c8815)"><path fill="#ffffff" d="M 185.429688 186.429688 L 365.855469 186.429688 L 365.855469 366.855469 L 185.429688 366.855469 Z M 185.429688 186.429688 " fill-opacity="1" fill-rule="nonzero"/></g></g><g clip-path="url(#933b8247cf)"><g clip-path="url(#480dfed006)"><path fill="#81eeeb" d="M 185.429688 186.429688 L 365.855469 186.429688 L 365.855469 366.855469 L 185.429688 366.855469 Z M 185.429688 186.429688 " fill-opacity="1" fill-rule="nonzero"/></g></g><g clip-path="url(#9ef93755fd)"><g clip-path="url(#b85455fe2b)"><g mask="url(#09482754bc)"><g transform="matrix(1, 0, 0, 1, 0, 188)"><g clip-path="url(#281b765ea2)"><g clip-path="url(#efb5d5f996)"><g clip-path="url(#e0817468b7)"><rect x="-122.265" width="800.28" fill="#a1c3ff" height="800.280008" y="-310.265001" fill-opacity="1"/></g></g></g></g></g></g></g><g clip-path="url(#fe2caf845c)"><g clip-path="url(#a4c117c80e)"><path fill="#81eeeb" d="M 0 367.753906 L 0 187.324219 L 180.429688 187.324219 L 180.429688 367.753906 Z M 0 367.753906 " fill-opacity="1" fill-rule="nonzero"/></g></g><g clip-path="url(#20601aac0e)"><g clip-path="url(#df55632f47)"><path fill="#ffffff" d="M 27.253906 215.488281 L 153.167969 215.488281 L 153.167969 341.402344 L 27.253906 341.402344 Z M 27.253906 215.488281 " fill-opacity="1" fill-rule="nonzero"/></g></g><g clip-path="url(#58e3c60873)"><g clip-path="url(#7b79ab8732)"><path fill="#81eeeb" d="M 27.253906 215.488281 L 153.167969 215.488281 L 153.167969 341.402344 L 27.253906 341.402344 Z M 27.253906 215.488281 " fill-opacity="1" fill-rule="nonzero"/></g></g><g clip-path="url(#0c0e55dc50)"><path fill="#eee400" d="M 110.75 310.851562 C 104.078125 310.851562 99.765625 307.671875 97.664062 303.511719 L 103.511719 300.121094 C 105.054688 302.636719 107.050781 304.484375 110.597656 304.484375 C 113.570312 304.484375 115.46875 302.996094 115.46875 300.941406 C 115.46875 297.855469 111.347656 296.644531 108.441406 295.398438 C 103.253906 293.195312 99.816406 290.421875 99.816406 284.566406 C 99.816406 279.179688 103.921875 275.074219 110.339844 275.074219 C 114.90625 275.074219 118.195312 276.667969 120.550781 280.820312 L 114.957031 284.414062 C 113.726562 282.207031 112.394531 281.335938 110.339844 281.335938 C 108.234375 281.335938 106.898438 282.671875 106.898438 284.414062 C 106.898438 286.570312 108.230469 287.441406 111.3125 288.777344 C 117.769531 291.542969 122.65625 293.722656 122.65625 300.839844 C 122.660156 307.3125 117.578125 310.851562 110.75 310.851562 Z M 94.203125 300.019531 C 94.203125 307.464844 89.617188 311.398438 83.253906 311.398438 C 77.503906 311.398438 74.058594 309.199219 72.363281 305.375 L 72.265625 305.375 L 78.109375 301.289062 C 79.238281 303.289062 80.257812 304.707031 82.71875 304.707031 C 85.082031 304.707031 86.558594 303.511719 86.558594 299.921875 L 86.558594 274.789062 L 94.203125 274.789062 Z M 52.148438 316.847656 L 128.613281 316.847656 L 128.613281 240.378906 L 52.148438 240.378906 Z M 52.148438 316.847656 " fill-opacity="1" fill-rule="evenodd"/></g><g clip-path="url(#164f3b7835)"><g clip-path="url(#82f71d4aaa)"><g mask="url(#117e4d3e81)"><g transform="matrix(1, 0, 0, 1, 186, -0.000000000000059952)"><g clip-path="url(#d830477e6a)"><g clip-path="url(#dd4f926e8e)"><g clip-path="url(#5b26d00ccb)"><rect x="-308.265" width="800.28" fill="#a1c3ff" height="800.280008" y="-122.265001" fill-opacity="1"/></g></g></g></g></g></g></g><g clip-path="url(#36ab346431)"><g clip-path="url(#87ca8acbfd)"><path fill="#81eeeb" d="M 185.253906 0 L 365.683594 0 L 365.683594 180.429688 L 185.253906 180.429688 Z M 185.253906 0 " fill-opacity="1" fill-rule="nonzero"/></g></g><g clip-path="url(#59c714b0a0)"><g clip-path="url(#ea3d9db014)"><path fill="#ffffff" d="M 340.445312 26.621094 L 340.445312 152.535156 L 214.53125 152.535156 L 214.53125 26.621094 Z M 340.445312 26.621094 " fill-opacity="1" fill-rule="nonzero"/></g></g><g clip-path="url(#386831a5fd)"><g clip-path="url(#49f567b225)"><path fill="#81eeeb" d="M 340.445312 26.621094 L 340.445312 152.535156 L 214.53125 152.535156 L 214.53125 26.621094 Z M 340.445312 26.621094 " fill-opacity="1" fill-rule="nonzero"/></g></g><g clip-path="url(#b91cfff684)"><g clip-path="url(#cc137f4c46)"><path fill="url(#2a542f680f)" d="M 240.632812 52.894531 L 240.632812 108.433594 L 296.570312 108.433594 L 296.570312 52.894531 Z M 240.632812 52.894531 " fill-rule="nonzero"/></g></g><g clip-path="url(#110a1b1ab9)"><g clip-path="url(#16385bfbf4)"><path fill="url(#3740a62db1)" d="M 258.132812 70.796875 L 258.132812 126.34375 L 314.074219 126.34375 L 314.074219 70.796875 Z M 258.132812 70.796875 " fill-rule="nonzero"/></g></g><g clip-path="url(#9f1fc65b0b)"><g clip-path="url(#bca93bc211)"><g mask="url(#1dfda88f07)"><g transform="matrix(1, 0, 0, 1, 375, 188)"><g clip-path="url(#154a2d8e60)"><g clip-path="url(#2d8403c8b2)"><g clip-path="url(#38de4f9e61)"><path fill="#a1c3ff" d="M -0.519531 179.753906 L -0.519531 -0.675781 L 179.90625 -0.675781 L 179.90625 179.753906 Z M -0.519531 179.753906 " fill-opacity="1" fill-rule="nonzero"/></g></g></g></g></g></g></g><g clip-path="url(#dd0e241026)"><g clip-path="url(#df82049aaf)"><path fill="#81eeeb" d="M 374.480469 367.753906 L 374.480469 187.324219 L 554.90625 187.324219 L 554.90625 367.753906 Z M 374.480469 367.753906 " fill-opacity="1" fill-rule="nonzero"/></g></g><g clip-path="url(#3a560b64e9)"><g clip-path="url(#000c7fa916)"><path fill="#ffffff" d="M 401.816406 215.488281 L 527.730469 215.488281 L 527.730469 341.402344 L 401.816406 341.402344 Z M 401.816406 215.488281 " fill-opacity="1" fill-rule="nonzero"/></g></g><g clip-path="url(#401a09c305)"><g clip-path="url(#b9dbb07f88)"><path fill="#81eeeb" d="M 401.816406 215.488281 L 527.730469 215.488281 L 527.730469 341.402344 L 401.816406 341.402344 Z M 401.816406 215.488281 " fill-opacity="1" fill-rule="nonzero"/></g></g><g clip-path="url(#25e749425b)"><path fill="#2ba977" d="M 461.578125 238.738281 L 474.550781 238.738281 L 474.550781 298.371094 C 467.90625 299.632812 463.015625 300.128906 457.722656 300.128906 C 441.878906 300.113281 433.632812 293.015625 433.632812 279.378906 C 433.632812 266.242188 442.378906 257.714844 455.9375 257.714844 C 458.039062 257.714844 459.640625 257.882812 461.578125 258.378906 Z M 462.035156 269.125 C 460.515625 268.628906 459.261719 268.460938 457.660156 268.460938 C 451.097656 268.460938 447.308594 272.476562 447.308594 279.511719 C 447.308594 286.359375 450.933594 290.144531 457.578125 290.144531 C 459.011719 290.144531 460.179688 290.058594 462.035156 289.8125 Z M 462.035156 269.125 " fill-opacity="1" fill-rule="nonzero"/></g><g clip-path="url(#57ebe68cfe)"><path fill="#2ba977" d="M 495.765625 259.316406 L 495.765625 289.171875 C 495.765625 299.457031 494.996094 304.402344 492.742188 308.664062 C 490.640625 312.761719 487.867188 315.347656 482.140625 318.203125 L 470.105469 312.511719 C 475.832031 309.84375 478.601562 307.484375 480.371094 303.882812 C 482.226562 300.203125 482.808594 295.941406 482.808594 284.730469 L 482.808594 259.316406 Z M 495.765625 259.316406 " fill-opacity="1" fill-rule="nonzero"/></g><g clip-path="url(#406ced1e3c)"><path fill="#2ba977" d="M 481.5 238.738281 L 494.472656 238.738281 L 494.472656 251.960938 L 481.5 251.960938 Z M 481.5 238.738281 " fill-opacity="1" fill-rule="nonzero"/></g><g clip-path="url(#18159a6082)"><g clip-path="url(#23003a192f)"><g mask="url(#1869f0e2f9)"><g transform="matrix(1, 0, 0, 1, 186, 375)"><g clip-path="url(#c8c766b9f9)"><g clip-path="url(#28b2906d9c)"><g clip-path="url(#17ea7fe827)"><path fill="#a1c3ff" d="M 179.675781 179.902344 L -0.75 179.902344 L -0.75 -0.527344 L 179.675781 -0.527344 Z M 179.675781 179.902344 " fill-opacity="1" fill-rule="nonzero"/></g></g></g></g></g></g></g><g clip-path="url(#d0c765c40a)"><g clip-path="url(#2ad7803d20)"><path fill="#81eeeb" d="M 365.675781 554.902344 L 185.25 554.902344 L 185.25 374.472656 L 365.675781 374.472656 Z M 365.675781 554.902344 " fill-opacity="1" fill-rule="nonzero"/></g></g><g clip-path="url(#720e3e35cd)"><g clip-path="url(#93137eb80c)"><path fill="#ffffff" d="M 340.445312 401.183594 L 340.445312 527.097656 L 214.53125 527.097656 L 214.53125 401.183594 Z M 340.445312 401.183594 " fill-opacity="1" fill-rule="nonzero"/></g></g><g clip-path="url(#69c66232cf)"><g clip-path="url(#5031c776be)"><path fill="#81eeeb" d="M 340.445312 401.183594 L 340.445312 527.097656 L 214.53125 527.097656 L 214.53125 401.183594 Z M 340.445312 401.183594 " fill-opacity="1" fill-rule="nonzero"/></g></g><path fill="#53c1de" d="M 284.21875 464.265625 C 284.21875 460.582031 281.160156 457.59375 277.390625 457.59375 C 273.617188 457.59375 270.5625 460.582031 270.5625 464.265625 C 270.5625 467.953125 273.617188 470.9375 277.390625 470.9375 C 281.160156 470.9375 284.21875 467.953125 284.21875 464.265625 Z M 284.21875 464.265625 " fill-opacity="1" fill-rule="nonzero"/><g clip-path="url(#2a7cb5b550)"><path fill="#53c1de" d="M 299.566406 451.878906 C 301.007812 446.152344 302.820312 435.535156 296.429688 431.933594 C 290.070312 428.351562 281.792969 435.21875 277.425781 439.339844 C 273.066406 435.257812 264.558594 428.421875 258.175781 432.03125 C 251.816406 435.628906 253.777344 446.070312 255.253906 451.832031 C 249.320312 453.476562 239.15625 457.023438 239.15625 464.265625 C 239.15625 471.488281 249.3125 475.34375 255.207031 476.988281 C 253.726562 482.785156 251.863281 493.074219 258.230469 496.664062 C 264.636719 500.273438 273.121094 493.597656 277.53125 489.429688 C 281.929688 493.578125 290.125 500.296875 296.484375 496.699219 C 302.867188 493.089844 301.203125 482.613281 299.730469 476.820312 C 305.445312 475.171875 315.621094 471.398438 315.621094 464.265625 C 315.621094 457.09375 305.402344 453.519531 299.566406 451.878906 Z M 298.839844 473.746094 C 297.875 470.753906 296.566406 467.570312 294.96875 464.28125 C 296.496094 461.070312 297.75 457.929688 298.691406 454.953125 C 302.96875 456.167969 312.355469 458.9375 312.355469 464.265625 C 312.355469 469.644531 303.347656 472.441406 298.839844 473.746094 Z M 294.847656 493.9375 C 290.101562 496.621094 283.054688 490.195312 279.804688 487.140625 C 281.960938 484.839844 284.113281 482.160156 286.214844 479.1875 C 289.910156 478.867188 293.402344 478.34375 296.570312 477.628906 C 297.609375 481.726562 299.617188 491.238281 294.847656 493.9375 Z M 259.863281 493.898438 C 255.117188 491.222656 257.285156 482.039062 258.375 477.773438 C 261.503906 478.449219 264.972656 478.9375 268.679688 479.230469 C 270.792969 482.136719 273.007812 484.8125 275.242188 487.152344 C 272.484375 489.761719 264.632812 496.585938 259.863281 493.898438 Z M 242.421875 464.265625 C 242.421875 458.867188 251.753906 456.117188 256.128906 454.90625 C 257.085938 457.949219 258.339844 461.128906 259.855469 464.34375 C 258.320312 467.605469 257.050781 470.835938 256.082031 473.914062 C 251.910156 472.746094 242.421875 469.667969 242.421875 464.265625 Z M 259.8125 434.796875 C 264.578125 432.097656 271.972656 438.664062 275.136719 441.621094 C 272.914062 443.949219 270.71875 446.605469 268.621094 449.496094 C 265.027344 449.824219 261.582031 450.34375 258.417969 451.046875 C 257.230469 446.398438 255.050781 437.488281 259.8125 434.796875 Z M 288.550781 452.964844 C 290.992188 453.265625 293.328125 453.667969 295.523438 454.15625 C 294.863281 456.21875 294.042969 458.378906 293.078125 460.589844 C 291.675781 457.992188 290.167969 455.445312 288.550781 452.964844 Z M 277.425781 443.902344 C 278.933594 445.496094 280.441406 447.277344 281.925781 449.207031 C 278.914062 449.070312 275.898438 449.070312 272.886719 449.207031 C 274.375 447.292969 275.894531 445.515625 277.425781 443.902344 Z M 261.730469 460.589844 C 260.777344 458.382812 259.964844 456.214844 259.300781 454.125 C 261.484375 453.644531 263.808594 453.257812 266.234375 452.960938 C 264.609375 455.433594 263.109375 457.980469 261.730469 460.589844 Z M 266.300781 475.800781 C 263.796875 475.527344 261.4375 475.15625 259.253906 474.691406 C 259.929688 472.5625 260.761719 470.347656 261.734375 468.097656 C 263.132812 470.734375 264.65625 473.304688 266.300781 475.800781 Z M 277.515625 484.855469 C 275.96875 483.222656 274.421875 481.417969 272.914062 479.476562 C 275.945312 479.59375 278.976562 479.59375 282.003906 479.460938 C 280.515625 481.4375 279.011719 483.246094 277.515625 484.855469 Z M 293.105469 467.980469 C 294.128906 470.257812 294.992188 472.460938 295.675781 474.554688 C 293.457031 475.050781 291.066406 475.445312 288.542969 475.742188 C 290.171875 473.21875 291.699219 470.632812 293.105469 467.980469 Z M 284.390625 476.128906 C 279.761719 476.453125 275.097656 476.449219 270.464844 476.15625 C 267.832031 472.398438 265.488281 468.445312 263.464844 464.34375 C 265.480469 460.25 267.808594 456.304688 270.425781 452.550781 C 275.0625 452.210938 279.730469 452.207031 284.367188 452.554688 C 286.964844 456.304688 289.285156 460.238281 291.347656 464.296875 C 289.3125 468.390625 286.972656 472.34375 284.390625 476.128906 Z M 294.796875 434.699219 C 299.566406 437.386719 297.445312 446.929688 296.402344 451.078125 C 293.230469 450.363281 289.785156 449.832031 286.179688 449.5 C 284.078125 446.578125 281.898438 443.917969 279.714844 441.617188 C 282.917969 438.597656 290.078125 432.039062 294.796875 434.699219 Z M 294.796875 434.699219 " fill-opacity="1" fill-rule="evenodd"/></g></svg>